<?xml version="1.0" encoding="UTF-8"?>
<svg width="229px" height="71px" viewBox="0 0 229 71" version="1.1" xmlns="http://www.w3.org/2000/svg" xmlns:xlink="http://www.w3.org/1999/xlink">
    <!-- Generator: Sketch 61.2 (89653) - https://sketch.com -->
    <title>BERK_FOOTER</title>
    <desc>Created with Sketch.</desc>
    <defs>
        <polygon id="path-1" points="0.00015839999 0.289079981 40.8404278 0.289079981 40.8404278 51.8582559 0.00015839999 51.8582559"></polygon>
        <polygon id="path-3" points="0.279179982 0.197207987 32.4719979 0.197207987 32.4719979 49.1039968 0.279179982 49.1039968"></polygon>
        <polygon id="path-5" points="0 70.9910738 228.095985 70.9910738 228.095985 0.792158349 0 0.792158349"></polygon>
    </defs>
    <g id="Symbols" stroke="none" stroke-width="1" fill="none" fill-rule="evenodd">
        <g id="SHORT-FOOTER" transform="translate(-170.000000, -412.000000)">
            <g id="BERK_FOOTER" transform="translate(170.000000, 412.000000)">
                <g id="Group-3" transform="translate(0.000000, 0.503078)">
                    <mask id="mask-2" fill="white">
                        <use xlink:href="#path-1"></use>
                    </mask>
                    <g id="Clip-2"></g>
                    <path d="M21.542557,51.8582559 C18.0490452,51.8582559 14.5555335,51.0266559 10.8957017,51.0266559 C7.40218992,51.0266559 5.57267004,51.3592959 2.91155021,51.3592959 C2.07915827,51.3592959 1.4970383,51.2761359 1.4970383,50.445328 C1.4970383,49.612144 1.99599827,49.445824 3.82551815,49.445824 C7.56850991,49.445824 7.7356219,49.280296 7.7356219,48.0336881 L7.7356219,9.77058657 C7.7356219,3.20015499 6.40347799,2.45171504 4.07579014,2.45171504 C0.332006379,2.45171504 0.00015839999,2.36776305 0.00015839999,1.36984311 C0.00015839999,0.787723149 0.248846384,0.704563155 1.66256629,0.704563155 C4.24211013,0.704563155 6.82006996,0.787723149 9.73146177,0.787723149 C11.4778217,0.787723149 15.4710854,0.288763181 22.9562769,0.288763181 C33.7702442,0.288763181 38.4279959,5.86127482 38.4279959,11.7664264 C38.4279959,17.6723701 34.8513242,20.5837619 32.1894123,22.4132818 C30.6085804,23.4951537 28.7782685,24.4099136 28.7782685,24.6593936 C28.7782685,24.8257136 30.3591004,25.2415136 32.0230923,26.0731135 C35.9316121,28.0697454 40.8404278,30.8979772 40.8404278,38.1352727 C40.8404278,47.4507761 33.1049643,51.8582559 21.542557,51.8582559 M20.4606851,2.28460305 C14.9713334,2.28460305 14.7226455,3.033043 14.7226455,4.6962429 L14.7226455,22.7467137 C14.7226455,24.0772736 15.8029334,23.9109537 17.7995653,23.9109537 C22.8731169,23.9109537 26.3666287,24.4099136 26.3666287,24.4099136 C28.7782685,22.5803937 31.5241324,20.9995618 31.5241324,14.4291303 C31.5241324,10.2703385 28.0306206,2.28460305 20.4606851,2.28460305 M17.7171973,25.4902016 C15.3879254,25.4902016 14.7226455,25.8236335 14.7226455,27.6539454 L14.7226455,42.5419605 C14.7226455,43.2927764 14.9713334,47.9481521 15.7197734,48.7813361 C16.6353253,49.779256 19.2964452,50.361376 21.959149,50.361376 C28.2793086,50.361376 32.9378523,46.0354722 32.9378523,38.8005527 C32.9378523,31.3129852 26.7832207,25.4902016 17.7171973,25.4902016" id="Fill-1" fill="#FFFFFF" mask="url(#mask-2)"></path>
                </g>
                <path d="M67.3559525,31.7062924 C65.4749526,32.1411003 58.240033,33.7330202 49.9937296,34.2391082 C48.8350337,34.3119722 48.6180257,34.6731242 48.6180257,36.3371161 C48.6180257,46.3218594 56.3590332,48.9980272 61.8586808,48.9980272 C66.6328565,48.9980272 69.2377443,47.2611714 69.6717603,47.2611714 C70.0337043,47.2611714 70.2507123,47.6951873 70.2507123,47.8409153 C70.2507123,48.2012753 64.1008327,52.760027 58.240033,52.760027 C52.3087454,52.760027 43.481906,49.8652672 43.481906,37.7841 C43.481906,27.5831406 50.3556736,21.505333 56.9379851,21.505333 C60.7007769,21.505333 65.3308086,23.8940049 67.9349044,26.9321167 C69.1656723,28.3791006 70.3227843,30.1151645 70.3227843,30.6933244 C70.3227843,30.9831964 69.3106083,31.2722764 67.3559525,31.7062924 M56.2148892,23.0259729 C50.7168255,23.0259729 48.9799696,31.2722764 48.9799696,32.2860363 C48.9799696,32.6479803 48.9799696,32.7200523 49.8487936,32.7200523 C53.6107933,32.7200523 57.5169371,31.7783644 62.9429287,30.9103324 C63.7388887,30.7661884 63.8117527,30.6212524 63.8117527,30.1872365 C63.8117527,28.3791006 59.543665,23.0259729 56.2148892,23.0259729" id="Fill-4" fill="#FFFFFF"></path>
                <path d="M93.834966,29.7529829 C92.821998,29.7529829 91.9539661,26.7869431 88.3361103,26.7869431 C84.1408866,26.7869431 82.5489667,28.523007 82.5489667,31.5611188 L82.5489667,46.4657658 C82.5489667,50.0099656 82.7659747,50.0099656 88.1191023,50.0099656 C90.0001022,50.0099656 90.0721742,50.2277656 90.0721742,50.8787895 C90.0721742,51.6755415 90.0001022,51.6026775 88.1191023,51.6026775 C87.1061344,51.6026775 82.2598867,51.2407335 79.9440788,51.2407335 C77.484127,51.2407335 75.0249672,51.6026775 74.0119992,51.6026775 C72.3472153,51.6026775 72.2022793,51.6026775 72.2022793,50.8787895 C72.2022793,50.1549016 72.2751433,50.0099656 74.0119992,50.0099656 C76.978039,50.0099656 77.195047,49.9378936 77.195047,48.9249256 L77.195047,29.1019589 C77.195047,24.1828472 77.339191,24.0387033 73.2889033,24.0387033 C71.9852714,24.0387033 71.9852714,24.1107752 71.9852714,23.3148153 C71.9852714,22.4459914 71.9131994,22.2289834 73.1439673,22.2289834 C75.6031271,22.2289834 76.978039,22.3731274 78.4250229,22.3731274 C79.5821349,22.3731274 80.9562548,22.0119754 82.1149507,22.0119754 C82.4048227,22.0119754 82.6939027,22.2289834 82.6939027,22.8087273 C82.6939027,23.1706713 82.5489667,24.7617992 82.5489667,24.9788072 C82.5489667,25.6298311 82.6210387,26.1359191 82.9109107,26.1359191 C83.9959506,26.1359191 87.3960064,22.3731274 90.7952702,22.3731274 C92.0989021,22.3731274 95.4260939,23.9658393 95.4260939,25.8468391 C95.4260939,26.5699351 94.2689819,29.7529829 93.834966,29.7529829" id="Fill-6" fill="#FFFFFF"></path>
                <path d="M128.054908,51.8918367 C127.186876,51.8918367 126.247564,51.8197647 125.59654,51.8197647 C124.728508,51.8197647 122.557636,51.8918367 121.54546,51.8918367 C120.241828,51.8918367 119.590012,50.0821168 116.552692,46.609989 C113.514581,43.1378612 110.474093,38.5791095 110.039285,38.5791095 C109.750997,38.5791095 108.738029,39.3029975 107.508053,40.0981654 C106.350941,40.8220534 105.337181,41.3297253 105.337181,41.9807493 L105.337181,46.537917 C105.337181,49.9371808 105.193037,49.9371808 109.678133,49.9371808 C111.341333,49.9371808 111.631205,50.2991248 111.631205,50.8788687 C111.631205,51.6027567 111.270053,51.6027567 109.678133,51.6027567 C108.593093,51.6027567 105.265901,51.4578207 102.950885,51.4578207 C100.490142,51.4578207 97.8131817,51.6027567 96.8010058,51.6027567 C95.1370139,51.6027567 94.7029979,51.5298927 94.7029979,50.8788687 C94.7029979,50.2991248 95.0649419,49.9371808 96.8010058,49.9371808 C99.2601656,49.9371808 99.9119816,49.9371808 99.9119816,48.8521409 C99.9119816,46.754925 100.12899,25.3400384 100.12899,10.0750314 C100.12899,4.93891168 99.5500376,4.28788772 97.5961737,4.28788772 C94.6309259,4.28788772 94.3418459,4.07087974 94.3418459,3.56320777 C94.3418459,2.84011182 94.4859899,2.55023984 95.2819499,2.55023984 C100.490142,2.55023984 104.758229,0.959111938 105.410045,0.959111938 C105.771989,0.959111938 105.916925,1.17611992 105.916925,1.6101359 C105.916925,2.55023984 105.771989,5.58993564 105.771989,7.90495149 C105.771989,18.9010788 105.337181,27.0040303 105.337181,38.7961175 C105.337181,39.0859895 105.410045,39.3029975 105.627845,39.3029975 C107.435981,39.3029975 114.961565,32.6478219 117.27658,30.476158 C120.097684,27.7999902 120.747916,26.5700143 120.747916,25.0509584 C120.747916,23.8938465 120.530908,23.7489105 117.34786,23.7489105 C116.262821,23.7489105 115.900877,23.6039745 115.900877,22.9529505 C115.900877,22.3732066 116.262821,22.2282706 117.203716,22.2282706 C117.92602,22.2282706 119.300932,22.4452786 120.168964,22.4452786 C121.109068,22.4452786 125.305876,22.2282706 126.173908,22.2282706 C126.75286,22.2282706 127.042732,22.3011346 127.042732,22.5181425 C127.042732,23.1699585 124.583572,26.2809343 122.340628,28.4510142 C118.722772,31.9967979 114.237677,35.1790537 114.237677,35.6859337 C114.237677,36.3369577 115.538933,37.7118696 120.603772,43.7896772 C123.064516,46.754925 125.37874,50.2991248 127.838692,50.2991248 C129.573964,50.2991248 130.152916,50.6618607 130.152916,51.2408127 C130.152916,51.7461087 129.646828,51.8918367 128.054908,51.8918367" id="Fill-8" fill="#FFFFFF"></path>
                <path d="M151.714401,31.7062924 C149.83261,32.1411003 142.598482,33.7330202 134.351387,34.2391082 C133.193483,34.3119722 132.977267,34.6731242 132.977267,36.3371161 C132.977267,46.3218594 140.71669,48.9980272 146.215546,48.9980272 C150.989721,48.9980272 153.595401,47.2611714 154.030209,47.2611714 C154.390569,47.2611714 154.607577,47.6951873 154.607577,47.8409153 C154.607577,48.2012753 148.45849,52.760027 142.598482,52.760027 C136.66561,52.760027 127.839563,49.8652672 127.839563,37.7841 C127.839563,27.5831406 134.712539,21.505333 141.296434,21.505333 C145.058434,21.505333 149.687674,23.8940049 152.293353,26.9321167 C153.522537,28.3791006 154.680441,30.1151645 154.680441,30.6933244 C154.680441,30.9831964 153.668265,31.2722764 151.714401,31.7062924 M140.572546,23.0259729 C135.074482,23.0259729 133.339211,31.2722764 133.339211,32.2860363 C133.339211,32.6479803 133.339211,32.7200523 134.207243,32.7200523 C137.967658,32.7200523 141.873802,31.7783644 147.301378,30.9103324 C148.096546,30.7661884 148.168618,30.6212524 148.168618,30.1872365 C148.168618,28.3791006 143.901322,23.0259729 140.572546,23.0259729" id="Fill-10" fill="#FFFFFF"></path>
                <path d="M167.644451,51.6025983 C166.558619,51.6025983 164.968283,51.4568703 163.664651,51.4568703 C161.205491,51.4568703 157.371419,51.6025983 156.358452,51.6025983 C154.693668,51.6025983 154.54794,51.4568703 154.54794,50.8795023 C154.54794,50.3726224 154.620804,49.9378144 156.358452,49.9378144 C159.324491,49.9378144 160.553675,50.0098864 160.553675,48.7086305 L160.553675,8.84489703 C160.553675,4.28772932 160.120451,4.28772932 156.865331,4.28772932 C155.563284,4.28772932 154.838604,4.14358533 154.838604,3.34604138 C154.838604,2.47800944 155.417556,2.55087344 156.648324,2.47800944 C162.290531,2.11685746 165.039563,0.886881543 165.474371,0.886881543 C165.836315,0.886881543 166.196675,1.24882552 166.196675,2.04399347 C166.196675,2.91202541 165.836315,5.51770524 165.836315,7.6877851 C165.836315,35.2517593 165.474371,40.966039 165.474371,43.0656308 C165.474371,49.0697824 165.979667,49.8657424 167.282507,49.8657424 C170.898779,49.8657424 170.755427,50.2989664 170.755427,50.8795023 C170.755427,51.6025983 170.247755,51.6025983 167.644451,51.6025983" id="Fill-12" fill="#FFFFFF"></path>
                <path d="M193.443295,31.7062924 C191.562295,32.1411003 184.327375,33.7330202 176.079488,34.2391082 C174.922376,34.3119722 174.704576,34.6731242 174.704576,36.3371161 C174.704576,46.3218594 182.446375,48.9980272 187.944439,48.9980272 C192.719407,48.9980272 195.324295,47.2611714 195.757519,47.2611714 C196.119463,47.2611714 196.335679,47.6951873 196.335679,47.8409153 C196.335679,48.2012753 190.187383,52.760027 184.327375,52.760027 C178.393712,52.760027 169.567664,49.8652672 169.567664,37.7841 C169.567664,27.5831406 176.441432,21.505333 183.025327,21.505333 C186.787327,21.505333 191.418151,23.8940049 194.021455,26.9321167 C195.251431,28.3791006 196.408543,30.1151645 196.408543,30.6933244 C196.408543,30.9831964 195.395575,31.2722764 193.443295,31.7062924 M182.301439,23.0259729 C176.803376,23.0259729 175.06652,31.2722764 175.06652,32.2860363 C175.06652,32.6479803 175.06652,32.7200523 175.934552,32.7200523 C179.698136,32.7200523 183.603487,31.7783644 189.030271,30.9103324 C189.825439,30.7661884 189.899095,30.6212524 189.899095,30.1872365 C189.899095,28.3791006 185.628631,23.0259729 182.301439,23.0259729" id="Fill-14" fill="#FFFFFF"></path>
                <g id="Group-18" transform="translate(195.623987, 21.887077)">
                    <mask id="mask-4" fill="white">
                        <use xlink:href="#path-3"></use>
                    </mask>
                    <g id="Clip-17"></g>
                    <path d="M30.591394,2.07899987 C28.9994741,2.07899987 25.8164263,10.7609033 20.1021467,24.6509984 C15.541811,35.7191977 12.2874832,41.5799973 9.97325936,46.354965 C9.17809141,47.9468849 8.30847546,48.0189569 6.71655557,48.2359649 C4.54647571,48.5258369 4.04117974,49.1039968 2.44925984,49.1039968 C1.21769992,49.1039968 0.495395968,48.7428449 0.495395968,48.3809009 C0.495395968,47.9468849 3.89545175,47.5128689 6.35461159,44.4018931 C8.96029142,41.1459813 15.181451,32.6090139 15.181451,30.439726 C15.181451,29.6429741 9.39430739,16.257383 5.41450765,6.85317556 C3.60637177,2.51301584 3.0986998,2.15107186 1.79823588,2.15107186 C0.349667977,2.15107186 0.279179982,2.07899987 0.279179982,1.42797591 C0.279179982,0.77695195 0.495395968,0.414215973 1.79823588,0.414215973 C3.82258775,0.414215973 4.33025972,0.558359964 6.06553161,0.558359964 C8.09067548,0.558359964 10.6226993,0.341351978 12.9385072,0.341351978 C14.4575631,0.341351978 14.7466431,0.631223959 14.7466431,1.42797591 C14.7466431,2.07899987 14.4575631,2.15107186 12.9385072,2.15107186 C11.2032353,2.15107186 10.7684273,2.58508783 10.7684273,4.24907973 C10.7684273,6.34708759 12.6494272,8.87911143 16.9895869,20.0209667 C17.5701229,21.5400226 18.4373628,22.7699985 18.7272348,22.7699985 C19.2325308,22.7699985 19.6673387,21.7570306 20.8244507,18.3561828 C22.5597225,13.1479912 25.1646104,5.62319964 25.1646104,4.6110237 C25.1646104,2.44094384 25.1646104,2.00692787 22.7054505,2.00692787 C20.4640907,2.00692787 20.1734267,2.00692787 20.1734267,1.28303992 C20.1734267,0.341351978 20.3896427,0.341351978 21.6924826,0.341351978 C23.6455545,0.341351978 24.9468104,0.486287969 26.9022583,0.486287969 C27.9880902,0.486287969 29.9403701,0.197207987 30.953338,0.197207987 C32.1104499,0.197207987 32.4723939,0.269279983 32.4723939,1.06603193 C32.4723939,1.71705589 31.459426,2.07899987 30.591394,2.07899987" id="Fill-16" fill="#FFFFFF" mask="url(#mask-4)"></path>
                </g>
                <path d="M9.85319217,69.9315363 C7.48115232,69.9315363 6.2804804,68.5906804 6.2804804,66.4158485 L6.2804804,60.1051929 L7.96031229,60.1051929 L7.96031229,66.5005925 C7.96031229,67.7147284 8.46956825,68.5051444 9.85319217,68.5051444 C11.2225601,68.5051444 11.730232,67.7147284 11.730232,66.5148485 L11.730232,60.1051929 L13.4108559,60.1051929 L13.4108559,66.4015925 C13.4108559,68.5906804 12.210976,69.9315363 9.85319217,69.9315363" id="Fill-19" fill="#FFFFFF"></path>
                <polygon id="Fill-21" fill="#FFFFFF" points="21.5561002 69.7767795 17.4757165 63.2815879 17.4479965 63.2815879 17.4479965 69.7767795 15.7673726 69.7767795 15.7673726 60.2593161 17.3909725 60.0906201 21.3303802 66.4590917 21.3731482 66.4590917 21.3731482 60.1040841 23.0529801 60.1040841 23.0529801 69.7767795"></polygon>
                <mask id="mask-6" fill="white">
                    <use xlink:href="#path-5"></use>
                </mask>
                <g id="Clip-24"></g>
                <polygon id="Fill-23" fill="#FFFFFF" mask="url(#mask-6)" points="25.4509184 69.7769379 27.1307503 69.7769379 27.1307503 60.1050345 25.4509184 60.1050345"></polygon>
                <path d="M33.9635714,69.7767795 L32.1142515,69.7767795 L28.7823077,60.1040841 L30.5603476,60.1040841 L32.4104595,65.4983958 C32.4104595,65.4983958 32.5942035,66.0630917 33.0598995,67.7144116 L33.1446435,67.7144116 C33.6253874,66.0630917 33.8083394,65.5118598 33.8083394,65.5118598 L35.6576593,60.1040841 L37.3097712,60.1040841 L33.9635714,69.7767795 Z" id="Fill-25" fill="#FFFFFF" mask="url(#mask-6)"></path>
                <polygon id="Fill-26" fill="#FFFFFF" mask="url(#mask-6)" points="44.8195147 69.7767795 38.9460431 69.7767795 38.9460431 60.0906201 44.7062587 60.0906201 44.7062587 61.51622 40.625875 61.51622 40.625875 64.1844679 44.2548187 64.1844679 44.2548187 65.6108598 40.625875 65.6108598 40.625875 68.3503876 44.9462347 68.3503876"></polygon>
                <path d="M52.2445142,69.7767795 L50.9036583,67.0515077 C50.6209143,66.4725557 50.2676824,65.9078598 49.6602184,65.9078598 L48.8555465,65.9078598 L48.8555465,69.7767795 L47.1757146,69.7767795 L47.1757146,60.1040841 L50.2819384,60.1040841 C52.4140022,60.1040841 53.4729062,61.2905001 53.4729062,62.9703319 C53.4729062,64.1274439 52.9224662,65.1174438 51.6513063,65.5973958 L51.6513063,65.6251158 C51.9625623,65.8088598 52.1320502,66.0630917 52.2445142,66.2888117 L54.0946261,69.7767795 L52.2445142,69.7767795 Z M50.2399624,61.54394 L48.8555465,61.54394 L48.8555465,64.4957238 L50.2676824,64.4957238 C51.2846103,64.4957238 51.7503063,63.9033079 51.7503063,62.9853799 C51.7503063,62.080916 51.3836103,61.54394 50.2399624,61.54394 L50.2399624,61.54394 Z" id="Fill-27" fill="#FFFFFF" mask="url(#mask-6)"></path>
                <path d="M58.4408842,69.9315363 C57.1134923,69.9315363 56.0403324,69.4096083 55.2507084,68.8591684 L55.9555884,67.6157284 C56.7467963,68.1527044 57.6924443,68.5051444 58.4408842,68.5051444 C59.5560202,68.5051444 60.1072521,67.8834244 60.1072521,67.1642885 C60.1072521,65.3569446 55.8288684,65.9358966 55.8288684,62.6879048 C55.8288684,60.9795609 57.2544683,59.9491689 58.9636042,59.9491689 C59.9797401,59.9491689 60.9546921,60.3031929 61.772828,60.8100729 L61.1661561,62.0250008 C60.4454361,61.6583048 59.7959961,61.3755608 58.9636042,61.3755608 C58.0314203,61.3755608 57.5514683,61.8974888 57.5514683,62.6182088 C57.5514683,64.8065046 61.829852,63.8180887 61.829852,67.1080565 C61.829852,68.7451204 60.2902041,69.9315363 58.4408842,69.9315363" id="Fill-28" fill="#FFFFFF" mask="url(#mask-6)"></path>
                <polygon id="Fill-29" fill="#FFFFFF" mask="url(#mask-6)" points="63.8328199 69.7769379 65.5134438 69.7769379 65.5134438 60.1050345 63.8328199 60.1050345"></polygon>
                <polygon id="Fill-30" fill="#FFFFFF" mask="url(#mask-6)" points="74.1247008 61.5303968 71.682173 61.5303968 71.682173 69.7759083 70.0023411 69.7759083 70.0023411 61.5446528 67.4465573 61.5446528 67.4465573 60.1040049 74.2514208 60.1040049"></polygon>
                <path d="M80.0813324,65.6388966 L80.0813324,69.7770963 L78.4007085,69.7770963 L78.4007085,65.6388966 L75.3515087,60.1044009 L77.2435966,60.1044009 L78.5282205,62.8581848 C78.5282205,62.8581848 78.7119645,63.2106247 79.2204285,64.2837847 L79.2624045,64.2837847 C79.7423565,63.2106247 79.9118445,62.8581848 79.9118445,62.8581848 L81.2812124,60.1044009 L83.1313242,60.1044009 L80.0813324,65.6388966 Z" id="Fill-31" fill="#FFFFFF" mask="url(#mask-6)"></path>
                <path d="M93.0684684,69.9315363 C90.1459886,69.9315363 88.8613647,67.7012644 88.8613647,64.9332246 C88.8613647,62.0250008 90.1602446,59.9491689 93.0684684,59.9491689 C95.9766922,59.9491689 97.2755721,62.0250008 97.2755721,64.9332246 C97.2755721,67.7012644 95.9909482,69.9315363 93.0684684,69.9315363 M93.0684684,61.3755608 C91.4028925,61.3755608 90.5831726,62.8162088 90.5831726,64.9197606 C90.5831726,67.0375685 91.4028925,68.5051444 93.0684684,68.5051444 C94.7213723,68.5051444 95.5395082,67.0375685 95.5395082,64.9332246 C95.5395082,62.8296728 94.7348363,61.3755608 93.0684684,61.3755608" id="Fill-32" fill="#FFFFFF" mask="url(#mask-6)"></path>
                <polygon id="Fill-33" fill="#FFFFFF" mask="url(#mask-6)" points="101.114158 61.5165368 101.114158 64.1855767 104.672614 64.1855767 104.672614 65.6111766 101.114158 65.6111766 101.114158 69.7763043 99.4343264 69.7763043 99.4343264 60.0901449 105.081286 60.0901449 105.081286 61.5165368"></polygon>
                <path d="M115.682997,69.9315363 C112.704286,69.9315363 111.404614,67.9127284 111.404614,64.9474806 C111.404614,62.0392568 112.831006,59.9491689 115.739229,59.9491689 C116.939109,59.9491689 117.942573,60.3578409 118.957917,61.1926089 L118.083549,62.3212088 C117.335109,61.6994888 116.657157,61.3755608 115.739229,61.3755608 C114.031677,61.3755608 113.127214,62.6601848 113.127214,64.9332246 C113.127214,67.2213125 113.973861,68.5051444 115.766949,68.5051444 C116.628645,68.5051444 117.533109,68.1107284 118.323525,67.3900085 L119.185221,68.4916804 C118.196805,69.3945603 116.982669,69.9315363 115.682997,69.9315363" id="Fill-34" fill="#FFFFFF" mask="url(#mask-6)"></path>
                <path d="M127.117497,69.7767795 L126.312825,67.4467157 L122.416185,67.4467157 L121.611513,69.7767795 L120.043353,69.7767795 L123.446577,60.2458521 L125.409153,60.0906201 L128.840888,69.7767795 L127.117497,69.7767795 Z M125.141457,64.1139799 C125.141457,64.1139799 125.027409,63.8043079 124.363713,61.799756 L124.335993,61.799756 C123.686553,63.8043079 123.573297,64.1139799 123.573297,64.1139799 L122.825649,66.2468357 L125.889105,66.2468357 L125.141457,64.1139799 Z" id="Fill-35" fill="#FFFFFF" mask="url(#mask-6)"></path>
                <polygon id="Fill-36" fill="#FFFFFF" mask="url(#mask-6)" points="135.926991 69.7767795 130.20796 69.7767795 130.20796 60.1040841 131.887792 60.1040841 131.887792 68.3503876 136.053711 68.3503876"></polygon>
                <polygon id="Fill-37" fill="#FFFFFF" mask="url(#mask-6)" points="137.690775 69.7769379 139.370607 69.7769379 139.370607 60.1050345 137.690775 60.1050345"></polygon>
                <polygon id="Fill-38" fill="#FFFFFF" mask="url(#mask-6)" points="143.237468 61.5165368 143.237468 64.1855767 146.795131 64.1855767 146.795131 65.6111766 143.237468 65.6111766 143.237468 69.7763043 141.556844 69.7763043 141.556844 60.0901449 147.205387 60.0901449 147.205387 61.5165368"></polygon>
                <path d="M152.49864,69.9315363 C149.57616,69.9315363 148.290744,67.7012644 148.290744,64.9332246 C148.290744,62.0250008 149.588832,59.9491689 152.49864,59.9491689 C155.406864,59.9491689 156.705744,62.0250008 156.705744,64.9332246 C156.705744,67.7012644 155.420328,69.9315363 152.49864,69.9315363 M152.49864,61.3755608 C150.832272,61.3755608 150.012552,62.8162088 150.012552,64.9197606 C150.012552,67.0375685 150.832272,68.5051444 152.49864,68.5051444 C154.150752,68.5051444 154.968888,67.0375685 154.968888,64.9332246 C154.968888,62.8296728 154.165008,61.3755608 152.49864,61.3755608" id="Fill-39" fill="#FFFFFF" mask="url(#mask-6)"></path>
                <path d="M163.226596,69.7767795 L161.88574,67.0515077 C161.603788,66.4725557 161.249764,65.9078598 160.643092,65.9078598 L159.837628,65.9078598 L159.837628,69.7767795 L158.157796,69.7767795 L158.157796,60.1040841 L161.264812,60.1040841 C163.396876,60.1040841 164.454988,61.2905001 164.454988,62.9703319 C164.454988,64.1274439 163.90534,65.1174438 162.63418,65.5973958 L162.63418,65.6251158 C162.945436,65.8088598 163.114924,66.0630917 163.226596,66.2888117 L165.076708,69.7767795 L163.226596,69.7767795 Z M161.222044,61.54394 L159.837628,61.54394 L159.837628,64.4957238 L161.249764,64.4957238 C162.267484,64.4957238 162.73318,63.9033079 162.73318,62.9853799 C162.73318,62.080916 162.366484,61.54394 161.222044,61.54394 L161.222044,61.54394 Z" id="Fill-40" fill="#FFFFFF" mask="url(#mask-6)"></path>
                <polygon id="Fill-41" fill="#FFFFFF" mask="url(#mask-6)" points="172.176829 69.7767795 168.098029 63.2815879 168.068725 63.2815879 168.068725 69.7767795 166.388101 69.7767795 166.388101 60.2593161 168.012493 60.0906201 171.951109 66.4590917 171.994669 66.4590917 171.994669 60.1040841 173.674501 60.1040841 173.674501 69.7767795"></polygon>
                <polygon id="Fill-42" fill="#FFFFFF" mask="url(#mask-6)" points="175.789141 69.7769379 177.468973 69.7769379 177.468973 60.1050345 175.789141 60.1050345"></polygon>
                <path d="M185.911534,69.7767795 L185.106862,67.4467157 L181.210222,67.4467157 L180.406342,69.7767795 L178.83739,69.7767795 L182.240614,60.2458521 L184.203982,60.0906201 L187.634926,69.7767795 L185.911534,69.7767795 Z M183.936286,64.1139799 C183.936286,64.1139799 183.821446,63.8043079 183.15775,61.799756 L183.13003,61.799756 C182.48059,63.8043079 182.367334,64.1139799 182.367334,64.1139799 L181.618894,66.2468357 L184.683142,66.2468357 L183.936286,64.1139799 Z" id="Fill-43" fill="#FFFFFF" mask="url(#mask-6)"></path>
            </g>
        </g>
    </g>
</svg>