<?xml version="1.0" encoding="utf-8"?>
<!-- Generator: Adobe Illustrator 28.1.0, SVG Export Plug-In . SVG Version: 6.00 Build 0)  -->
<svg version="1.1" id="Layer_1" xmlns="http://www.w3.org/2000/svg" xmlns:xlink="http://www.w3.org/1999/xlink" x="0px" y="0px"
	 viewBox="0 0 3985 394" style="enable-background:new 0 0 3985 394;" xml:space="preserve">
<style type="text/css">
	.st0{fill:#FFFFFF;}
	.st1{fill:#002676;}
	.st2{fill:#004AAE;}
</style>
<g id="Backgrounds">
	<rect id="_x31_:Horizontal_BG" class="st0" width="3985" height="394"/>
</g>
<g id="Berkeley_Wordmarks">
	<g id="_x31_:Wordmark">
		<g>
			<path class="st1" d="M1296.9,347.1c13,0,25.2-9.6,49.6-60.8c16.6-36.4,29.1-68.6,42.1-101.6c4.2-10.6,6.2-12.7,12.7-14.5
				c4.7-1.3,6.5-3.1,6.5-6c0-2.6-1.6-4.9-5.5-4.9c-5.7,0-12.5,0.8-20.3,0.8c-8.1,0-14-0.8-20-0.8c-3.6,0-5.5,2.1-5.5,4.7
				c0,2.9,1.8,4.7,6,6c11.4,3.1,12.5,8.1,8.1,21.6c-7,21.3-14.8,41.8-26.8,69.1c-10.1-25.2-18.7-47.8-27.3-73.2
				c-3.1-9.9-2.1-14,10.1-17.4c4.7-1.3,6.2-2.9,6.2-5.7s-2.1-4.9-5.7-4.9c-7.8,0-15.8,0.8-26.5,0.8c-11.4,0-19.7-0.8-27.8-0.8
				c-3.9,0-5.7,2.3-5.7,4.9c0,3.1,1.6,4.7,6.2,6c6,1.6,7.8,3.6,11.4,13c14.3,35.6,27,67,43.6,109.6c-11.2,20.5-19.5,25.2-30.6,27.3
				c-9.1,1.6-15.1,7.3-15.1,14.5C1282.9,340.6,1287.1,347.1,1296.9,347.1 M1215.9,169.7c16.6,0,24.2,15.1,24.2,21
				c0,2.1-1,3.6-3.4,4.2c-14,3.6-30.9,7-48.6,10.1C1191.2,181.4,1202.9,169.7,1215.9,169.7 M1217.7,286.6
				c22.6,0,38.2-11.2,47.5-22.3c4.2-4.9,1.6-9.4-2.6-9.4c-1,0-2.1,0.5-3.1,1c-10.9,6.8-19.5,10.4-31.2,10.4c-25.7,0-41-22.6-41-48.3
				v-0.5c25.5-3.6,50.4-8.6,76.1-14.5c3.4-0.8,5.7-3.4,4.9-7.3c-4.2-18.7-21.3-39.2-50.9-39.2s-56.9,27.5-56.9,67.3
				C1160.6,261.1,1184.7,286.6,1217.7,286.6 M1096.4,284.5c8.6,0,17.7-0.8,28.1-0.8c10.4,0,20,0.8,28.6,0.8c3.9,0,5.7-2.3,5.7-4.9
				c0-2.9-1.8-5.5-6.2-6c-11.7-1.3-13.8-2.6-13.8-8.1c-0.5-25.2-0.5-48.8-0.5-72.2c0-21.6,0-45.2,0.8-97.7c0-3.4-2.1-4.2-4.9-3.4
				c-13.5,3.4-26.5,5.5-37.1,6.5c-4.4,0.3-6.2,2.3-6.2,4.9c0,2.9,1.8,4.9,6.8,5.7c11.4,2.1,12.7,3.4,13,9.4
				c0.5,26.2,0.5,50.9,0.5,74.5c0,23.4,0,47-0.5,72.2c-0.3,5.5-1.8,6.5-13.5,8.1c-4.7,0.5-6.2,3.1-6.2,6
				C1090.7,282.2,1092.5,284.5,1096.4,284.5 M1037.7,169.7c16.6,0,24.2,15.1,24.2,21c0,2.1-1,3.6-3.4,4.2c-14,3.6-30.9,7-48.6,10.1
				C1013.1,181.4,1024.7,169.7,1037.7,169.7 M1039.5,286.6c22.6,0,38.2-11.2,47.5-22.3c4.2-4.9,1.6-9.4-2.6-9.4c-1,0-2.1,0.5-3.1,1
				c-10.9,6.8-19.5,10.4-31.2,10.4c-25.7,0-41-22.6-41-48.3v-0.5c25.5-3.6,50.4-8.6,76.1-14.5c3.4-0.8,5.7-3.4,4.9-7.3
				c-4.2-18.7-21.3-39.2-50.9-39.2s-56.9,27.5-56.9,67.3C982.4,261.1,1006.6,286.6,1039.5,286.6 M852,284.5c8.6,0,17.1-0.8,27.5-0.8
				c10.4,0,19.2,0.8,27.8,0.8c3.9,0,5.7-2.3,5.7-4.9c0-2.9-1.6-4.9-6.2-6c-11.7-1.8-13-2.6-13-8.1c-0.3-8.3-0.3-16.6-0.3-24.7
				c5.7-3.6,11.4-7.5,16.9-11.4c10.9,16.4,22.1,33.2,33,48.8c3.4,4.9,5.2,6,10.6,6c7.8,0,17.4-0.3,28.6,0c3.9,0,6-2.3,6-5.2
				c0-2.6-1-4.9-6.5-5.5c-7.3-0.8-11.2-4.4-17.4-12.5c-10.9-14.8-22.3-31.7-33-48c0-0.3,0.3-0.3,0.5-0.5
				c20-17.4,33.2-30.6,43.1-43.6c1.3-1.8,2.1-3.4,2.1-4.9c0-3.1-2.1-5.2-6.2-4.9c-12.2,1-23.4,1-37.1,0.3c-5.5-0.3-7,2.3-7,4.9
				c0,2.3,1.8,4.9,5.5,5.7l5.2,1.3c8.6,2.1,8.6,9.1-2.1,20.3c-11.4,12.2-26.2,23.9-42.3,34v-32.2c0-21.6,0-45.2,0.8-97.7
				c0-3.4-2.1-4.2-4.9-3.4c-13.5,3.4-26.5,5.5-37.1,6.5c-4.4,0.3-6.2,2.3-6.2,4.9c0,2.9,1.8,4.9,6.8,5.7c11.4,2.1,12.7,3.4,13,9.4
				c0.5,26.2,0.5,50.9,0.5,74.5c0,23.4,0,47-0.5,72.2c-0.3,5.5-1.3,6.2-13,8.1c-4.7,1-6.2,3.1-6.2,6
				C846.3,282.2,848.1,284.5,852,284.5 M755.7,284.5c8.3,0,17.1-0.8,27.3-0.8c10.1,0,21.8,0.8,30.1,0.8c3.6,0,5.5-2.3,5.5-4.9
				c0-2.9-1.6-5.2-6.8-6c-13.2-1.6-14.5-2.9-14.8-8.3c-0.5-14.3-0.5-27-0.5-43.6v-21.8c13.5-17.9,19.7-21.6,26.5-21.6
				c8.1,0,14.8,10.1,18.2,10.1c1.8,0,2.9-0.5,4.2-3.1c2.6-5.2,5.2-10.4,7.8-15.8c1.6-3.4,0.8-5.2-2.3-7.3c-6.2-4.2-12.7-7-19.2-7
				c-11.4,0-21.8,9.6-34.8,30.9c0-8.6,0.3-17.9,0.5-28.3c0-3.4-2.1-4.2-4.9-3.4c-13.5,3.6-26.2,5.7-37.1,6.5c-4.4,0.5-6,2.3-6,5.2
				s1.6,4.9,6.5,5.7c11.4,2.1,12.7,3.4,13,9.1c0.5,13,0.5,26.8,0.5,40.8c0,16.6,0,29.3-0.5,43.6c-0.3,5.5-1,6.8-12.5,8.3
				c-4.7,1-6.2,3.1-6.2,6C749.9,282.2,751.8,284.5,755.7,284.5 M692.5,169.7c16.6,0,24.2,15.1,24.2,21c0,2.1-1,3.6-3.4,4.2
				c-14,3.6-30.9,7-48.6,10.1C667.9,181.4,679.6,169.7,692.5,169.7 M694.4,286.6c22.6,0,38.2-11.2,47.5-22.3
				c4.2-4.9,1.6-9.4-2.6-9.4c-1,0-2.1,0.5-3.1,1c-10.9,6.8-19.5,10.4-31.2,10.4c-25.7,0-41-22.6-41-48.3v-0.5
				c25.5-3.6,50.4-8.6,76.1-14.5c3.4-0.8,5.7-3.4,4.9-7.3c-4.2-18.7-21.3-39.2-50.9-39.2s-56.9,27.5-56.9,67.3
				C637.2,261.1,661.4,286.6,694.4,286.6 M535.9,270.2c-7.8-1.8-10.4-4.4-10.6-13.8c-0.5-19.7-0.5-35.1-0.5-63.1v-0.5
				c44.2-1,67.3,8.8,67.3,41c0,19-13.5,37.9-40.8,37.9C544.2,271.8,539.8,271.2,535.9,270.2 M525.3,125.5c0-5.2,1.3-7.3,5.2-8.8
				c3.1-1,7.8-1.6,15.1-1.6c21.6,0,34.8,11.7,34.8,34.5c0,12.7-4.2,23.4-10.9,31.4c-13.2-2.3-28.3-3.1-44.7-2.3
				C524.8,158.3,524.8,143.5,525.3,125.5 M555.4,286c43.1,0,68.8-25.2,68.8-54.5c0-23.1-14-37.9-37.1-46c13-7.8,24.2-22.1,24.2-39.2
				c0-27.8-23.1-44.9-63.6-44.9c-17.4,0-21.6,1.6-37.9,1.6c-16.9,0-27.3-1.3-34-1.3c-4.2,0-6.2,2.3-6.2,5.7c0,2.9,1.6,5.2,7,6.2
				c14,2.1,17.4,4.9,17.4,11.9c0.3,22.1,0.5,38.7,0.5,67.8c0,29.1,0,46.2-0.5,68.3c-0.3,7.5-2.9,9.6-16.9,10.9c-5.5,0.8-7,3.4-7,6.2
				c0,3.4,2.1,5.7,6.2,5.7c10.1,0,19.7-0.5,33.5-0.5C522.7,284,534.6,286,555.4,286 M344.3,287.6c22.1,0,42.6-6.2,62.1-19
				c5.5-3.4,7-7,7-10.6c0-7,0.5-13.5,0.3-19.2c-0.3-4.4-2.3-7-6-7c-2.9,0-4.9,1.8-6,5.7c-6.8,22.6-27,34.8-52.7,34.8
				c-37.9,0-66.5-31.4-66.5-79c0-48,27-79.5,67-79.5c26,0,41.6,9.6,50.1,29.9c1.8,4.2,3.4,6.2,6.8,6.2c3.6,0,5.2-2.6,5.5-6.8
				c0.3-6,0.3-15.3,0.3-21c0-3.9-1.3-7-7-10.1c-13.8-7.5-33-13-53.5-13c-60.8,0-102.3,41.8-102.3,97.1
				C249.2,249.9,288.2,287.6,344.3,287.6 M146.9,287.6c44.9,0,74.5-27.8,74.5-76.9v-17.4c0-29.3,0-46.5,0.3-70.1
				c0.3-5.5,2.9-7.8,17.1-9.1c4.9-0.8,6.5-3.4,6.5-6.2c0-3.4-2.1-5.7-6-5.7c-8.3,0-16.4,0.8-26.8,0.8c-10.6,0-19-0.8-27.5-0.8
				c-3.9,0-6,2.3-6,5.7c0,2.6,1.6,5.2,6.8,6c15.1,1.6,17.7,3.9,17.7,9.3c0.5,23.6,0.5,40.8,0.5,70.1v15.3c0,38.4-19,57.9-50.6,57.9
				c-32.5,0-49.3-20.3-49.3-56.1v-17.1c0-29.3,0-46.5,0.5-70.1c0-5.5,2.6-7.8,16.9-9.1c5.2-0.8,6.8-3.4,6.8-6.2
				c0-3.4-2.1-5.7-6.2-5.7c-9.9,0-19.7,0.8-33.2,0.8c-13.5,0-23.1-0.8-33.2-0.8c-3.9,0-6,2.3-6,5.7c0,2.9,1.6,5.5,6.8,6.2
				c14.3,1.3,16.9,3.6,16.9,9.1c0.5,23.6,0.5,40.8,0.5,70.1v20.5C73.6,262.4,101.7,287.6,146.9,287.6"/>
		</g>
	</g>
</g>
<g id="Endorser_Lines">
</g>
<g id="Double_Unit_Name_Lines">
	<g id="_x31_:Horizontal_Unit_Lines_Outline">
		<path class="st2" d="M1491.3,291.4c-10.4,0-19.3,0.8-28.2,0.8c-3.6,0-5.6-2-5.6-4.8c0-2.5,1.5-4.8,5.9-5.3
			c15-1.3,17.8-3.3,17.8-9.2c0.3-23.4,0.3-44,0.3-69.9c0-25.9,0-45.8-0.3-69.2c0-5.6-3.6-8.1-18.3-10.4c-4.3-0.8-5.9-2.8-5.9-5.3
			c0-2.8,1.8-4.8,5.3-4.8c5.1,0,15,1.3,30,1.3c15,0,27-1,42.5-1c54.9,0,97.7,32.3,97.9,88.5c0.3,57-44.5,90.8-98.2,90.8
			C1519.6,292.6,1505.8,291.4,1491.3,291.4z M1536.6,280.2c39.4-1.5,72-26.7,72-75.3c0-47.1-28-78.8-74.8-78.8
			c-7.6,0-15.3,0-23.4,0.5c-4.6,0.3-6.9,2.8-6.9,6.9c-0.5,22.9-0.5,44-0.5,69.4c0,25.2,0,43.7,0.5,62.6c0.3,10.9,4.3,13.5,15.5,14.2
			C1523.4,280.2,1530.5,280.4,1536.6,280.2z"/>
		<path class="st2" d="M1646,232.9c0-38.7,24.9-64.4,53.2-64.4c25.7,0,40.4,17.8,44.8,35.6c1,4.6-1.5,7.4-4.8,8.1
			c-23.7,5.6-48.3,10.7-72.2,14.8v1.5c0,27.5,15.5,49.6,41.2,49.6c11.2,0,20.9-4.6,30-11.7c1.5-1.3,2.5-1.8,3.8-1.8
			c3.3,0,5.1,4.3,2.3,7.9c-9.4,12.2-25.2,22.1-43.5,22.1C1669.4,294.7,1646,269.2,1646,232.9z M1667.9,215.3
			c18.3-3.6,36.4-7.1,50.9-10.9c2-0.8,3.1-1.8,2.8-3.8c-1.3-10.9-11.2-20.9-23.4-20.9C1683.4,179.7,1671.2,192.2,1667.9,215.3z"/>
		<path class="st2" d="M1754.3,348.9c0-2.5,1.5-4.6,5.6-5.1c11.7-1.8,12.7-2.8,12.7-8.9c0.8-30.3,0.5-56.7,0.5-98.9
			c0-18.3,0-30.8-0.5-43.5c-0.3-6.1-1.3-7.1-14.2-9.4c-4.3-0.8-5.8-2.8-5.8-5.1c0-2.5,1.5-4.1,5.6-4.6c8.6-0.5,19.8-2.8,31.3-5.9
			c2.5-0.8,4.8,0.5,4.8,3.6c-0.3,7.1-0.3,13.5-0.5,19.1c11.4-15.3,24.2-21.9,37.9-21.9c28.5,0,48.6,25.7,48.6,58.8
			c0,42.2-26.5,67.4-57,67.4c-12.2,0-22.4-4.3-29.8-10.9c0,18.3,0,34.1,0.5,51.4c0,6.1,1.3,7.4,16.5,8.9c4.8,0.3,6.4,2.5,6.4,5.1
			c0,2.3-1.5,4.3-5.1,4.3c-7.4,0-19.6-0.8-28.5-0.8c-8.6,0-16.8,0.8-23.9,0.8C1756.1,353.2,1754.3,351.1,1754.3,348.9z
			 M1793.5,268.2c6.4,8.9,16.5,14.2,27.7,14.2c21.6,0,37.9-18.6,37.9-50.6c0-29.2-15.5-47.6-34.6-47.6c-11.7,0-22.6,6.1-30.8,18.3
			c-0.3,12.5-0.3,22.6-0.3,33.3V268.2z"/>
		<path class="st2" d="M1895.2,267.7c0-23.9,27.7-35.9,67.4-45.5c0-5.6,0.3-11.4,0.5-17.6c0.5-16-7.6-23.9-19.3-23.9
			c-15.8,0-28,8.1-28,16.8c0,2.5,0.5,5.1,0.5,7.4c0,5.1-4.6,10.7-11.7,10.7c-5.8,0-10.9-3.3-10.9-11.7c0-13.7,21.6-35.4,53.4-35.4
			c18.8,0,37.4,8.1,36.4,34.3c-0.8,19.1-0.8,34.6-0.5,48.6c0.3,17,5.3,24.9,14.8,30.3c3.1,1.8,3.3,4.6,0,7.1
			c-2.8,1.8-6.4,4.3-9.2,5.9c-4.3,2.3-5.6,2-8.4,0.3c-6.1-3.8-12-11.2-15-23.7c-7.6,9.7-23.4,23.7-39.9,23.7
			C1905.9,294.9,1895.2,283.7,1895.2,267.7z M1933.6,279.2c8.6,0,20.6-6.1,30-15.8c-0.5-3.3-0.8-6.9-0.8-10.7
			c-0.3-6.6-0.3-13.7-0.3-20.6c-28.5,6.9-46.5,16.5-46.5,31.5C1916.1,274.1,1923.2,279.2,1933.6,279.2z"/>
		<path class="st2" d="M2008.2,287.8c0-2.5,1.5-4.3,5.6-5.1c11.7-1.8,12.5-2.8,12.7-8.9c0.5-13.7,0.5-25.7,0.5-42.5
			c0-13.7-0.3-26.2-0.5-38.9c-0.3-6.1-1.3-7.1-14.2-9.4c-4.6-0.8-5.8-2.8-5.8-5.1c0-2.5,1.5-4.1,5.3-4.6c8.9-0.5,20.1-2.8,31.3-5.9
			c2.8-0.8,4.8,0.5,4.8,3.6c-0.3,10.4-0.3,19.3-0.3,27c13.7-21.1,23.9-29.5,35.1-29.5c6.1,0,11.4,1.5,17,5.1
			c2.3,1.8,2.8,3.6,1.8,6.1c-2,4.8-4.6,9.9-7.4,14.5c-0.5,1.3-1.3,1.8-2.5,1.8c-3.6,0-8.1-8.4-16.8-8.4c-7.1,0-13.5,3.6-27.5,21.9
			v21.9c0,16.8,0,28.7,0.3,42.5c0.3,6.1,1.3,7.4,16.5,8.9c5.1,0.5,6.6,2.5,6.6,5.1c0,2.3-1.8,4.3-5.1,4.3c-7.4,0-19.8-0.8-28.5-0.8
			c-8.6,0-16.8,0.8-23.9,0.8C2009.7,292.1,2008.2,290.1,2008.2,287.8z"/>
		<path class="st2" d="M2124.1,263.9c0.3-27.5,0.3-53.2,0-80.1h-13c-3.1,0-5.1-1.5-5.1-4.3c0-1.8,0.8-3.1,4.6-5.3
			c7.9-4.6,17.3-12.7,26.2-25.7c3.1-3.8,8.1-3.1,8.1,2c0,6.6-0.3,13.5-0.3,20.6c11.2,0.3,21.9,0.3,31.8-0.3c4.6-0.3,6.9,2.8,6.9,6.6
			c0,3.6-2.3,6.6-6.9,6.4c-9.9-0.3-20.6-0.3-31.8,0c-0.3,27.7,0,55.7,0,76.3c0,11.7,4.8,18.8,15.8,18.8c5.1,0,9.4-1.3,14.2-3.6
			c2.3-1,3.6-1.5,4.8-1.5c3.3,0,5.3,4.3,2,7.4c-7.4,7.6-17.5,13-29.2,13C2133.3,294.2,2123.6,283.7,2124.1,263.9z"/>
		<path class="st2" d="M2187.7,287.8c0-2.5,1.5-4.6,5.6-5.1c11.7-1.8,12.5-2.8,12.7-8.9c0.5-13.7,0.5-25.7,0.5-42.5
			c0-13.7-0.3-26.2-0.5-38.9c-0.3-6.1-1.3-7.1-14.2-9.4c-4.6-0.8-5.8-2.8-5.8-5.1c0-2.5,1.5-4.1,5.3-4.6c8.9-0.5,20.1-2.8,31.3-5.9
			c2.8-0.8,4.8,0.5,4.8,3.6c0,6.6-0.3,12.7-0.3,18.3c11.7-12.5,25.2-21.1,39.2-21.1c15.3,0,26.7,7.9,31,22.9
			c12.2-13.2,26.2-22.9,41-22.9c19.6,0,33.6,13.2,32.8,37.9c-0.3,10.2-0.3,17.3-0.3,25.2c0,16.8,0,28.7,0.3,42.5
			c0.3,6.1,1,7.1,12.7,8.9c4.3,0.5,5.9,2.5,5.9,5.1c0,2.3-1.8,4.3-5.1,4.3c-7.4,0-15.3-0.8-23.9-0.8c-8.4,0-16.3,0.8-23.7,0.8
			c-3.3,0-4.8-2-4.8-4.3c0-2.5,1.3-4.6,5.3-5.1c11.4-1.8,12.2-2.8,12.5-8.9c0.5-13.7,0.5-25.7,0.5-42.5c0-7.6,0-14.5-0.3-24.2
			c-0.5-13.2-5.9-23.1-21.4-23.1c-10.2,0-21.4,6.9-30,15.8c0.3,2,0.3,4.1,0.3,6.4c-0.3,10.2-0.3,17.3-0.3,25.2
			c0,16.8,0,28.7,0.3,42.5c0.3,6.1,1,7.1,12.7,8.9c3.8,0.5,5.3,2.5,5.3,5.1c0,2.3-1.8,4.3-5.1,4.3c-7.1,0-15-0.8-23.4-0.8
			s-16.3,0.8-23.7,0.8c-3.3,0-5.1-2-5.1-4.3c0-2.5,1.5-4.6,5.6-5.1c11.4-1.8,12.2-2.8,12.5-8.9c0.5-13.7,0.5-25.7,0.5-42.5
			c0-7.6,0-14.5-0.3-24.2c-0.5-13.2-5.8-23.1-21.4-23.1c-10.2,0-21.4,6.9-30,15.8v31.5c0,16.8,0,28.7,0.3,42.5
			c0.3,6.1,1,7.1,12.7,8.9c3.8,0.5,5.3,2.5,5.3,5.1c0,2.3-1.8,4.3-5.1,4.3c-7.1,0-15-0.8-23.4-0.8c-8.6,0-16.8,0.8-23.9,0.8
			C2189.3,292.1,2187.7,290.1,2187.7,287.8z"/>
		<path class="st2" d="M2396.5,232.9c0-38.7,24.9-64.4,53.2-64.4c25.7,0,40.4,17.8,44.8,35.6c1,4.6-1.5,7.4-4.8,8.1
			c-23.7,5.6-48.3,10.7-72.2,14.8v1.5c0,27.5,15.5,49.6,41.2,49.6c11.2,0,20.9-4.6,30-11.7c1.5-1.3,2.5-1.8,3.8-1.8
			c3.3,0,5.1,4.3,2.3,7.9c-9.4,12.2-25.2,22.1-43.5,22.1C2419.9,294.7,2396.5,269.2,2396.5,232.9z M2418.4,215.3
			c18.3-3.6,36.4-7.1,50.9-10.9c2-0.8,3.1-1.8,2.8-3.8c-1.3-10.9-11.2-20.9-23.4-20.9C2433.9,179.7,2421.7,192.2,2418.4,215.3z"/>
		<path class="st2" d="M2505.9,287.8c0-2.5,1.5-4.6,5.6-5.1c11.7-1.8,12.5-2.8,12.7-8.9c0.5-13.7,0.5-25.7,0.5-42.5
			c0-13.7-0.3-26.2-0.5-38.9c-0.3-6.1-1.3-7.1-14.2-9.4c-4.6-0.8-5.8-2.8-5.8-5.1c0-2.5,1.5-4.1,5.3-4.6c8.9-0.5,20.1-2.8,31.3-5.9
			c2.8-0.8,4.8,0.5,4.8,3.6c0,6.6-0.3,12.7-0.3,18.3c12-12.7,26.2-21.1,40.7-21.1c19.6,0,33.8,13.2,33.3,37.9
			c-0.3,10.2-0.3,17.3-0.3,25.2c0,16.8,0,28.7,0.3,42.5c0.3,6.1,1,7.1,12.7,8.9c4.3,0.5,5.8,2.5,5.8,5.1c0,2.3-1.8,4.3-5.1,4.3
			c-7.4,0-15.5-0.8-23.9-0.8c-8.6,0-16.5,0.8-23.7,0.8c-3.3,0-5.1-2-5.1-4.3c0-2.5,1.5-4.6,5.3-5.1c11.7-1.8,12.5-2.8,12.7-8.9
			c0.3-13.7,0.3-25.7,0.3-42.5c0-7.6,0-14.5-0.3-24.2c-0.3-13.2-5.8-23.1-22.1-23.1c-10.4,0-22.1,6.9-31,15.8v31.5
			c0,16.8,0,28.7,0.3,42.5c0.3,6.1,1,7.1,12.7,8.9c3.8,0.5,5.3,2.5,5.3,5.1c0,2.3-1.5,4.3-5.1,4.3c-7.1,0-15-0.8-23.4-0.8
			c-8.6,0-16.8,0.8-23.9,0.8C2507.4,292.1,2505.9,290.1,2505.9,287.8z"/>
		<path class="st2" d="M2656.7,263.9c0.3-27.5,0.3-53.2,0-80.1h-13c-3.1,0-5.1-1.5-5.1-4.3c0-1.8,0.8-3.1,4.6-5.3
			c7.9-4.6,17.3-12.7,26.2-25.7c3.1-3.8,8.1-3.1,8.1,2c0,6.6-0.3,13.5-0.3,20.6c11.2,0.3,21.9,0.3,31.8-0.3c4.6-0.3,6.9,2.8,6.9,6.6
			c0,3.6-2.3,6.6-6.9,6.4c-9.9-0.3-20.6-0.3-31.8,0c-0.3,27.7,0,55.7,0,76.3c0,11.7,4.8,18.8,15.8,18.8c5.1,0,9.4-1.3,14.2-3.6
			c2.3-1,3.6-1.5,4.8-1.5c3.3,0,5.3,4.3,2,7.4c-7.4,7.6-17.5,13-29.2,13C2665.9,294.2,2656.2,283.7,2656.7,263.9z"/>
		<path class="st2" d="M2764.6,232.1c0-37.4,24.9-63.8,57-63.8c30.5,0,56,25.4,56,62.6c0,37.6-25.2,63.8-57,63.8
			C2789.8,294.7,2764.6,269.5,2764.6,232.1z M2856.1,236.2c0-36.4-17.6-56-37.1-56c-19.8,0-33.1,18.6-33.1,46.3
			c0,36.4,17.6,56,36.9,56C2842.9,282.5,2856.1,263.9,2856.1,236.2z"/>
		<path class="st2" d="M2886.2,287.8c0-2.5,1.5-4.3,5.6-5.1c11.7-1.8,12.5-2.8,12.7-8.9c0.5-24.9,0.5-48.3,0.5-71v-19.3
			c-5.1,0-10.2,0-15,0.3c-4.3,0.3-6.9-2.8-6.9-6.4c0-3.8,2.5-6.6,6.9-6.6c4.8,0.3,9.7,0.5,14.8,0.5c0-5.3-0.3-10.2-0.3-14.2
			c-0.5-36.1,15.8-58.8,48.1-58.8c18.1,0,31,9.2,31,19.1c0,5.6-3.6,9.9-9.7,9.9c-11.7,0-9.9-16-25.9-16c-16.8,0-23.4,16.8-23.4,38.7
			c0,5.9,0.3,13.5,0.3,21.4c7.6,0,15,0,21.9-0.5c4.6-0.3,6.9,2.8,6.9,6.6c0,3.6-2.3,6.6-6.9,6.4c-6.9-0.3-14-0.3-21.6-0.3
			c0.3,6.9,0.3,13.5,0.3,19.3c0,22.6,0,46,0.3,71c0.3,6.1,1.3,7.4,16.5,8.9c5.1,0.5,6.6,2.5,6.6,5.1c0,2.3-1.8,4.3-5.1,4.3
			c-7.4,0-19.8-0.8-28.5-0.8c-8.6,0-16.8,0.8-23.9,0.8C2887.7,292.1,2886.2,290.1,2886.2,287.8z"/>
		<path class="st2" d="M3015.1,281.5c-3.8-3.1-5.3-5.9-5.6-9.7c-0.8-6.9-1.3-16.5-1-24.4c0.3-4.1,2-6.1,4.8-6.1
			c2.5,0,4.6,1.8,5.3,4.8c5.9,27.5,21.6,36.4,43,36.4c22.1,0,38.2-13.7,38.2-33.1c0-42.2-86.2-36.4-86.2-90
			c0-27.7,22.6-48.3,56.7-48.3c11.7,0,26.5,2.5,37.9,9.7c4.1,2.3,5.3,4.6,5.6,7.6c0.3,6.1,0.5,13.5,0.3,20.6c0,3.3-1.5,5.6-4.6,5.6
			c-2.8,0-4.3-1.8-5.6-6.1c-5.8-17.3-18.1-25.4-35.4-25.4c-19.1,0-33.6,10.9-33.6,28.7c0,42.5,87,36.6,87,90.3
			c0,28.7-22.6,52.7-61.8,52.7C3041.8,294.7,3026.8,289.6,3015.1,281.5z"/>
		<path class="st2" d="M3146.1,263.9c0.3-27.5,0.3-53.2,0-80.1h-13c-3.1,0-5.1-1.5-5.1-4.3c0-1.8,0.8-3.1,4.6-5.3
			c7.9-4.6,17.3-12.7,26.2-25.7c3.1-3.8,8.1-3.1,8.1,2c0,6.6-0.3,13.5-0.3,20.6c11.2,0.3,21.9,0.3,31.8-0.3c4.6-0.3,6.9,2.8,6.9,6.6
			c0,3.6-2.3,6.6-6.9,6.4c-9.9-0.3-20.6-0.3-31.8,0c-0.3,27.7,0,55.7,0,76.3c0,11.7,4.8,18.8,15.8,18.8c5.1,0,9.4-1.3,14.2-3.6
			c2.3-1,3.6-1.5,4.8-1.5c3.3,0,5.3,4.3,2,7.4c-7.4,7.6-17.5,13-29.2,13C3155.2,294.2,3145.6,283.7,3146.1,263.9z"/>
		<path class="st2" d="M3214.8,267.7c0-23.9,27.7-35.9,67.4-45.5c0-5.6,0.3-11.4,0.5-17.6c0.5-16-7.6-23.9-19.3-23.9
			c-15.8,0-28,8.1-28,16.8c0,2.5,0.5,5.1,0.5,7.4c0,5.1-4.6,10.7-11.7,10.7c-5.8,0-10.9-3.3-10.9-11.7c0-13.7,21.6-35.4,53.4-35.4
			c18.8,0,37.4,8.1,36.4,34.3c-0.8,19.1-0.8,34.6-0.5,48.6c0.3,17,5.3,24.9,14.8,30.3c3.1,1.8,3.3,4.6,0,7.1
			c-2.8,1.8-6.4,4.3-9.2,5.9c-4.3,2.3-5.6,2-8.4,0.3c-6.1-3.8-12-11.2-15-23.7c-7.6,9.7-23.4,23.7-39.9,23.7
			C3225.4,294.9,3214.8,283.7,3214.8,267.7z M3253.2,279.2c8.6,0,20.6-6.1,30-15.8c-0.5-3.3-0.8-6.9-0.8-10.7
			c-0.3-6.6-0.3-13.7-0.3-20.6c-28.5,6.9-46.5,16.5-46.5,31.5C3235.6,274.1,3242.7,279.2,3253.2,279.2z"/>
		<path class="st2" d="M3340.2,263.9c0.3-27.5,0.3-53.2,0-80.1h-13c-3.1,0-5.1-1.5-5.1-4.3c0-1.8,0.8-3.1,4.6-5.3
			c7.9-4.6,17.3-12.7,26.2-25.7c3.1-3.8,8.1-3.1,8.1,2c0,6.6-0.3,13.5-0.3,20.6c11.2,0.3,21.9,0.3,31.8-0.3c4.6-0.3,6.9,2.8,6.9,6.6
			c0,3.6-2.3,6.6-6.9,6.4c-9.9-0.3-20.6-0.3-31.8,0c-0.3,27.7,0,55.7,0,76.3c0,11.7,4.8,18.8,15.8,18.8c5.1,0,9.4-1.3,14.2-3.6
			c2.3-1,3.6-1.5,4.8-1.5c3.3,0,5.3,4.3,2,7.4c-7.4,7.6-17.5,13-29.2,13C3349.3,294.2,3339.6,283.7,3340.2,263.9z"/>
		<path class="st2" d="M3403.7,287.8c0-2.5,1.5-4.3,5.6-5.1c11.7-1.8,12.5-2.8,12.7-8.9c0.5-13.7,0.5-25.7,0.5-42.5
			c0-13.7-0.3-26.2-0.5-38.9c-0.3-6.1-1.3-7.1-14.2-9.4c-4.6-0.8-5.8-2.8-5.8-5.1c0-2.5,1.5-4.1,5.3-4.6c8.9-0.5,20.3-2.8,31.5-5.9
			c2.5-0.8,4.8,0.5,4.8,3.6c-0.8,33.8-0.8,46.5-0.8,60.3c0,16.8,0,28.7,0.3,42.5c0.3,6.1,1,7.1,12.7,8.9c4.3,0.8,5.8,2.5,5.8,5.1
			c0,2.3-1.8,4.3-5.1,4.3c-7.4,0-15.3-0.8-23.9-0.8c-8.6,0-16.8,0.8-23.9,0.8C3405.3,292.1,3403.7,290.1,3403.7,287.8z M3417,130.9
			c0-7.9,6.1-15.3,15-15.3c8.4,0,15,6.1,15,15.3c0,7.6-6.1,15-15,15C3423.6,145.9,3417,139.8,3417,130.9z"/>
		<path class="st2" d="M3476.5,285c-3.6-2.8-4.6-5.1-5.1-8.9c-0.5-4.8-0.8-10.2-0.8-15c0-4.1,1.8-6.1,4.6-6.1c2.3,0,3.8,1,4.8,4.6
			c5.1,16.8,16.5,23.9,33.1,23.9c15.3,0,24.4-9.2,24.4-20.1c0-28.5-63.3-21.1-63.3-59.8c0-20.6,17.3-35.4,41.2-35.4
			c12.7,0,24.4,3.3,31.3,8.1c3.8,2.3,4.6,5.1,5.1,8.9c0.5,3.8,0.5,8.4,0.5,12.5c0,4.3-1.5,6.4-4.1,6.4c-2.5,0-3.8-1.5-5.1-4.6
			c-4.8-13.7-15.5-20.1-28.7-20.1c-13.5,0-21.1,8.4-21.1,18.1c0,26.5,63.8,20.9,63.8,60.3c0,22.1-19.3,37.1-43.7,37.1
			C3498.6,294.9,3484.4,291.1,3476.5,285z"/>
		<path class="st2" d="M3580.8,263.9c0.3-27.5,0.3-53.2,0-80.1h-13c-3.1,0-5.1-1.5-5.1-4.3c0-1.8,0.8-3.1,4.6-5.3
			c7.9-4.6,17.3-12.7,26.2-25.7c3.1-3.8,8.1-3.1,8.1,2c0,6.6-0.3,13.5-0.3,20.6c11.2,0.3,21.9,0.3,31.8-0.3c4.6-0.3,6.9,2.8,6.9,6.6
			c0,3.6-2.3,6.6-6.9,6.4c-9.9-0.3-20.6-0.3-31.8,0c-0.3,27.7,0,55.7,0,76.3c0,11.7,4.8,18.8,15.8,18.8c5.1,0,9.4-1.3,14.2-3.6
			c2.3-1,3.6-1.5,4.8-1.5c3.3,0,5.3,4.3,2,7.4c-7.4,7.6-17.5,13-29.2,13C3589.9,294.2,3580.3,283.7,3580.8,263.9z"/>
		<path class="st2" d="M3644.4,287.8c0-2.5,1.5-4.3,5.6-5.1c11.7-1.8,12.5-2.8,12.7-8.9c0.5-13.7,0.5-25.7,0.5-42.5
			c0-13.7-0.3-26.2-0.5-38.9c-0.3-6.1-1.3-7.1-14.2-9.4c-4.6-0.8-5.8-2.8-5.8-5.1c0-2.5,1.5-4.1,5.3-4.6c8.9-0.5,20.3-2.8,31.5-5.9
			c2.5-0.8,4.8,0.5,4.8,3.6c-0.8,33.8-0.8,46.5-0.8,60.3c0,16.8,0,28.7,0.3,42.5c0.3,6.1,1,7.1,12.7,8.9c4.3,0.8,5.8,2.5,5.8,5.1
			c0,2.3-1.8,4.3-5.1,4.3c-7.4,0-15.3-0.8-23.9-0.8c-8.6,0-16.8,0.8-23.9,0.8C3645.9,292.1,3644.4,290.1,3644.4,287.8z
			 M3657.6,130.9c0-7.9,6.1-15.3,15-15.3c8.4,0,15,6.1,15,15.3c0,7.6-6.1,15-15,15C3664.2,145.9,3657.6,139.8,3657.6,130.9z"/>
		<path class="st2" d="M3710,234.4c0-37.9,25.9-65.9,57.7-65.9c25.9,0,40.2,15,40.2,26.7c0,7.1-4.8,10.7-10.7,10.7
			c-4.8,0-10.4-3.6-13-12.7c-2.8-9.7-8.1-13.2-18.1-13.2c-18.3,0-35.1,16.3-35.1,48.6c0,27.5,14.8,49.6,38.9,49.6
			c11.7,0,21.4-4.6,31.8-13.2c1.5-1.3,2.5-1.8,3.8-1.8c3.3,0,5.1,4.1,2.3,7.9c-11.4,14.8-26.7,23.7-45.5,23.7
			C3732.6,294.7,3710,270.3,3710,234.4z"/>
		<path class="st2" d="M3824.2,285c-3.6-2.8-4.6-5.1-5.1-8.9c-0.5-4.8-0.8-10.2-0.8-15c0-4.1,1.8-6.1,4.6-6.1c2.3,0,3.8,1,4.8,4.6
			c5.1,16.8,16.5,23.9,33.1,23.9c15.3,0,24.4-9.2,24.4-20.1c0-28.5-63.3-21.1-63.3-59.8c0-20.6,17.3-35.4,41.2-35.4
			c12.7,0,24.4,3.3,31.3,8.1c3.8,2.3,4.6,5.1,5.1,8.9c0.5,3.8,0.5,8.4,0.5,12.5c0,4.3-1.5,6.4-4.1,6.4c-2.5,0-3.8-1.5-5.1-4.6
			c-4.8-13.7-15.5-20.1-28.7-20.1c-13.5,0-21.1,8.4-21.1,18.1c0,26.5,63.8,20.9,63.8,60.3c0,22.1-19.3,37.1-43.7,37.1
			C3846.3,294.9,3832.1,291.1,3824.2,285z"/>
	</g>
</g>
</svg>
