<?xml version="1.0" encoding="iso-8859-1"?>
<!-- Generator: Adobe Illustrator 28.6.0, SVG Export Plug-In . SVG Version: 9.03 Build 54939)  -->
<svg version="1.1" xmlns="http://www.w3.org/2000/svg" xmlns:xlink="http://www.w3.org/1999/xlink" x="0px" y="0px"
	 viewBox="0 0 4156.80176 645.17853" style="enable-background:new 0 0 4156.80176 645.17853;" xml:space="preserve">
<g id="Backgrounds">
	<rect id="_x31_:Horizontal_BG" style="fill:#FFFFFF;" width="4156.80176" height="645.17853"/>
</g>
<g id="Berkeley_Wordmarks">
	<g id="_x31_:Wordmark">
		<g>
			<path style="fill:#002676;" d="M1398.92969,489.08511c12.98682,0,25.19373-9.61023,49.60815-60.7767
				c16.62305-36.36227,29.0896-68.56808,42.07642-101.55377c4.15576-10.6492,6.23364-12.72705,12.72632-14.54446
				c4.67529-1.29868,6.49341-3.11685,6.49341-5.97394c0-2.59735-1.55847-4.935-5.45447-4.935
				c-5.71423,0-12.46655,0.77921-20.25867,0.77921c-8.05176,0-14.02502-0.77921-19.9989-0.77921
				c-3.63635,0-5.45435,2.07791-5.45435,4.67529c0,2.85709,1.81799,4.6752,5.97388,5.97391
				c11.42761,3.11609,12.46655,8.05109,8.05176,21.55731c-7.01282,21.29764-14.80493,41.81601-26.75208,69.08752
				c-10.12964-25.1936-18.70093-47.78989-27.27148-73.24329c-3.11682-9.86993-2.07788-14.0257,10.12891-17.40155
				c4.67529-1.29871,6.23376-2.85712,6.23376-5.7142s-2.078-4.935-5.71423-4.935c-7.79211,0-15.84326,0.77921-26.49231,0.77921
				c-11.42773,0-19.73926-0.77921-27.79102-0.77921c-3.896,0-5.7135,2.33765-5.7135,4.935
				c0,3.11682,1.55774,4.67526,6.23291,5.97394c5.974,1.55768,7.79211,3.63553,11.42847,12.98605
				c14.28467,35.58307,27.01172,67.00964,43.63403,109.60556c-11.16785,20.51837-19.47937,25.19363-30.64807,27.27151
				c-9.08997,1.55841-15.06396,7.27188-15.06396,14.54446C1384.90466,482.59171,1389.06055,489.08511,1398.92969,489.08511
				 M1317.89587,311.6907c16.62231,0,24.15466,15.06393,24.15466,21.03784c0,2.07791-1.03894,3.63635-3.37659,4.15576
				c-14.02502,3.63559-30.90784,7.01215-48.56909,10.12897C1293.22168,323.37808,1304.90979,311.6907,1317.89587,311.6907
				 M1319.71399,428.56815c22.59631,0,38.17969-11.16794,47.53015-22.33655c4.15576-4.935,1.55847-9.35052-2.59729-9.35052
				c-1.03894,0-2.078,0.51947-3.11694,1.03897c-10.90808,6.75314-19.47937,10.38943-31.16748,10.38943
				c-25.7124,0-41.03674-22.59625-41.03674-48.30942v-0.51947c25.45337-3.63629,50.38721-8.57123,76.10034-14.54517
				c3.37659-0.77924,5.71411-3.37656,4.93494-7.27188c-4.15576-18.70096-21.29761-39.21939-50.90674-39.21939
				s-56.88062,27.53128-56.88062,67.26941C1262.57361,403.11478,1286.72827,428.56815,1319.71399,428.56815 M1198.42175,426.49026
				c8.57056,0,17.66138-0.77924,28.05005-0.77924c10.3894,0,19.99963,0.77924,28.57019,0.77924
				c3.896,0,5.71423-2.33765,5.71423-4.935c0-2.85709-1.81824-5.45447-6.23364-5.97318
				c-11.6875-1.29871-13.76538-2.59738-13.76538-8.05182c-0.51941-25.19366-0.51941-48.82886-0.51941-72.20435
				c0-21.55807,0-45.1933,0.77917-97.65846c0-3.37584-2.07788-4.15506-4.93494-3.37584
				c-13.50549,3.37584-26.49243,5.4537-37.14075,6.49266c-4.41553,0.25974-6.23364,2.33765-6.23364,4.935
				c0,2.85707,1.81812,4.93498,6.75305,5.7142c11.42761,2.07787,12.72632,3.37656,12.98608,9.35045
				c0.51941,26.23257,0.51941,50.90677,0.51941,74.54199c0,23.37549,0,47.01068-0.51941,72.20435
				c-0.25977,5.45444-1.81824,6.49338-13.50549,8.05182c-4.67529,0.51871-6.23364,3.11609-6.23364,5.97318
				C1192.70764,424.15262,1194.52576,426.49026,1198.42175,426.49026 M1139.72437,311.6907
				c16.62244,0,24.15479,15.06393,24.15479,21.03784c0,2.07791-1.03894,3.63635-3.37659,4.15576
				c-14.02576,3.63559-30.90784,7.01215-48.56909,10.12897C1115.05029,323.37808,1126.73767,311.6907,1139.72437,311.6907
				 M1141.5426,428.56815c22.59631,0,38.17969-11.16794,47.53015-22.33655c4.15576-4.935,1.55835-9.35052-2.59729-9.35052
				c-1.03906,0-2.078,0.51947-3.11694,1.03897c-10.90881,6.75314-19.47937,10.38943-31.16748,10.38943
				c-25.71313,0-41.03674-22.59625-41.03674-48.30942v-0.51947c25.45325-3.63629,50.38721-8.57123,76.10034-14.54517
				c3.37646-0.77924,5.71411-3.37656,4.93494-7.27188c-4.15576-18.70096-21.29761-39.21939-50.90674-39.21939
				s-56.88074,27.53128-56.88074,67.26941C1084.4021,403.11478,1108.55688,428.56815,1141.5426,428.56815 M954.01776,426.49026
				c8.57129,0,17.14252-0.77924,27.53131-0.77924c10.38934,0,19.22034,0.77924,27.79095,0.77924
				c3.896,0,5.71417-2.33765,5.71417-4.935c0-2.85709-1.55847-4.93423-6.23364-5.97318
				c-11.68738-1.81818-12.98608-2.59738-12.98608-8.05182c-0.2597-8.31155-0.2597-16.62308-0.2597-24.67419
				c5.71417-3.63629,11.42761-7.53232,16.88208-11.42834c10.90887,16.36334,22.07684,33.24545,32.98566,48.82883
				c3.37659,4.935,5.19482,5.97397,10.64844,5.97397c7.79211,0,17.40234-0.25974,28.57019,0c3.89612,0,5.974-2.33765,5.974-5.19473
				c0-2.59735-1.03906-4.935-6.49341-5.4537c-7.27185-0.77924-11.16785-4.41553-17.40161-12.46732
				c-10.90881-14.80423-22.33655-31.68704-32.9856-48.04968c0-0.2597,0.25964-0.2597,0.51941-0.51944
				c19.99963-17.40161,33.24536-30.64813,43.11536-43.63416c1.29871-1.81818,2.07788-3.37659,2.07788-4.93497
				c0-3.11685-2.07788-5.19473-6.23364-4.93503c-12.20752,1.03894-23.37549,1.03894-37.14148,0.25974
				c-5.45447-0.25974-7.01294,2.33765-7.01294,4.935c0,2.33765,1.81824,4.935,5.45459,5.7142l5.1947,1.29871
				c8.57129,2.07715,8.57129,9.09-2.078,20.25861c-11.42749,12.20688-26.23248,23.89499-42.33539,34.02393v-32.20575
				c0-21.55807,0-45.1933,0.77924-97.65846c0-3.37584-2.07794-4.15506-4.93494-3.37584
				c-13.50562,3.37584-26.49237,5.4537-37.14154,6.49266c-4.41479,0.25974-6.23297,2.33765-6.23297,4.935
				c0,2.85707,1.81818,4.93498,6.75244,5.7142c11.42841,2.07787,12.72711,3.37656,12.98682,9.35045
				c0.51947,26.23257,0.51947,50.90677,0.51947,74.54199c0,23.37549,0,47.01068-0.51947,72.20435
				c-0.2597,5.45444-1.29871,6.23364-12.98682,8.05182c-4.6745,1.03894-6.23291,3.11609-6.23291,5.97318
				C948.30432,424.15262,950.12244,426.49026,954.01776,426.49026 M857.66016,426.49026
				c8.31152,0,17.14258-0.77924,27.27161-0.77924c10.1297,0,21.81775,0.77924,30.1286,0.77924
				c3.63623,0,5.45441-2.33765,5.45441-4.935c0-2.85709-1.55841-5.19397-6.75311-5.97318
				c-13.24579-1.55844-14.54449-2.85709-14.8042-8.31155c-0.51947-14.28549-0.51947-27.01178-0.51947-43.63416V341.8186
				c13.50549-17.92108,19.7392-21.55734,26.49231-21.55734c8.05182,0,14.80426,10.12967,18.18073,10.12967
				c1.81818,0,2.85712-0.51947,4.15582-3.11682c2.59729-5.1947,5.1947-10.38943,7.79211-15.84314
				c1.55841-3.37656,0.77917-5.19473-2.33771-7.27261c-6.23358-4.15576-12.72699-7.01285-19.21967-7.01285
				c-11.42841,0-21.81787,9.6102-34.80389,30.90784c0-8.57129,0.25977-17.92108,0.51947-28.31049
				c0-3.37656-2.07788-4.15576-4.93494-3.37656c-13.50629,3.63629-26.2326,5.71414-37.14154,6.49338
				c-4.41473,0.51947-5.97321,2.33765-5.97321,5.19473s1.55847,4.93497,6.49268,5.71344
				c11.42834,2.07785,12.72705,3.37656,12.98682,9.09076c0.51947,12.98679,0.51947,26.75204,0.51947,40.77777
				c0,16.62238,0,29.34866-0.51947,43.63416c-0.25977,5.45447-1.03894,6.75311-12.46735,8.31155
				c-4.6745,1.03894-6.23291,3.11609-6.23291,5.97318C851.94672,424.15262,853.76489,426.49026,857.66016,426.49026
				 M794.54877,311.6907c16.62311,0,24.15472,15.06393,24.15472,21.03784c0,2.07791-1.03894,3.63635-3.37585,4.15576
				c-14.02576,3.63559-30.90784,7.01215-48.56989,10.12897C769.87463,323.37808,781.56274,311.6907,794.54877,311.6907
				 M796.36694,428.56815c22.59625,0,38.18042-11.16794,47.53015-22.33655c4.15576-4.935,1.55841-9.35052-2.59662-9.35052
				c-1.03894,0-2.07788,0.51947-3.11682,1.03897c-10.90887,6.75314-19.48016,10.38943-31.16754,10.38943
				c-25.71313,0-41.0368-22.59625-41.0368-48.30942v-0.51947c25.45264-3.63629,50.38727-8.57123,76.1004-14.54517
				c3.37579-0.77924,5.71344-3.37656,4.9342-7.27188c-4.15503-18.70096-21.29761-39.21939-50.90674-39.21939
				s-56.87994,27.53128-56.87994,67.26941C739.22723,403.11478,763.38196,428.56815,796.36694,428.56815 M637.93469,412.20554
				c-7.79132-1.81818-10.38867-4.41553-10.64844-13.76602c-0.51947-19.7392-0.51947-35.0629-0.51947-63.11359v-0.51947
				c44.15363-1.03897,67.26941,8.83026,67.26941,41.03677c0,18.95999-13.50555,37.92068-40.7771,37.92068
				C646.24622,413.76392,641.83075,413.24445,637.93469,412.20554 M627.28625,267.53635c0-5.19473,1.29871-7.27185,5.19476-8.83026
				c3.11682-1.03897,7.79132-1.55844,15.0639-1.55844c21.55731,0,34.80389,11.68738,34.80389,34.5434
				c0,12.72708-4.15582,23.37549-10.90894,31.42731c-13.24579-2.33765-28.31049-3.11682-44.6731-2.33765
				C626.76678,300.26233,626.76678,285.45813,627.28625,267.53635 M657.41486,428.04868
				c43.11469,0,68.82782-25.19366,68.82782-54.54303c0-23.11575-14.02502-37.91998-37.14148-45.97177
				c12.98682-7.79208,24.1554-22.07681,24.1554-39.21939c0-27.79028-23.11646-44.93282-63.63379-44.93282
				c-17.40155,0-21.55731,1.5584-37.92065,1.5584c-16.88208,0-27.27155-1.29865-34.02393-1.29865
				c-4.15582,0-6.23364,2.3376-6.23364,5.71416c0,2.85712,1.55841,5.19473,7.01282,6.23364
				c14.02502,2.0779,17.40161,4.93498,17.40161,11.94713c0.2597,22.07684,0.51941,38.69989,0.51941,67.78958
				c0,29.08966,0,46.23151-0.51941,68.30832c-0.25977,7.53232-2.85712,9.6102-16.88214,10.90887
				c-5.45447,0.77924-7.01282,3.37585-7.01282,6.23294c0,3.37656,2.07782,5.7142,6.23364,5.7142
				c10.12891,0,19.7392-0.51947,33.50446-0.51947C624.6889,425.97079,636.63599,428.04868,657.41486,428.04868 M446.25925,429.60709
				c22.07681,0,42.59595-6.23364,62.07541-18.95999c5.45441-3.37656,7.01282-7.01285,7.01282-10.64914
				c0-7.01291,0.51874-13.50555,0.25903-19.21973c-0.25903-4.41553-2.33691-7.01285-5.97321-7.01285
				c-2.85709,0-4.935,1.81812-5.97391,5.71414c-6.75314,22.59628-27.01178,34.80386-52.72491,34.80386
				c-37.92068,0-66.49014-31.42731-66.49014-78.95746c0-48.04968,27.01178-79.47697,67.00961-79.47697
				c25.97287,0,41.55624,9.60951,50.12753,29.86891c1.81818,4.155,3.37656,6.23291,6.75317,6.23291
				c3.63629,0,5.1947-2.59732,5.45441-6.75238c0.25977-5.97394,0.25977-15.3244,0.25977-21.0386
				c0-3.89529-1.29871-7.01215-7.01288-10.12897c-13.76602-7.53233-32.98572-12.9868-53.50409-12.9868
				c-60.77673,0-102.33298,41.81676-102.33298,97.13899C351.19888,391.94614,390.15778,429.60709,446.25925,429.60709
				 M248.86958,429.60709c44.93282,0,74.54198-27.79102,74.54198-76.87961v-17.40155c0-29.3494,0-46.49197,0.25974-70.1272
				c0.25974-5.4537,2.85709-7.79135,17.14182-9.09003c4.935-0.77919,6.49341-3.37657,6.49341-6.23366
				c0-3.37656-2.07788-5.71416-5.97394-5.71416c-8.31079,0-16.36261,0.77917-26.75204,0.77917
				c-10.64844,0-18.95996-0.77917-27.53052-0.77917c-3.89603,0-5.97394,2.3376-5.97394,5.71416
				c0,2.59735,1.55841,5.19473,6.75314,5.97391c15.06393,1.55843,17.66129,3.89607,17.66129,9.34978
				c0.5195,23.63522,0.5195,40.7778,0.5195,70.1272v15.3237c0,38.44016-18.95999,57.91962-50.64702,57.91962
				c-32.46625,0-49.34834-20.2587-49.34834-56.1015v-17.14182c0-29.3494,0-46.49197,0.51947-70.1272
				c0-5.4537,2.59735-7.79135,16.8821-9.09003c5.1947-0.77919,6.75313-3.37657,6.75313-6.23366
				c0-3.37656-2.07788-5.71416-6.23366-5.71416c-9.86996,0-19.73918,0.77917-33.24545,0.77917
				c-13.50552,0-23.11575-0.77917-33.24471-0.77917c-3.89604,0-5.97392,2.3376-5.97392,5.71416
				c0,2.85709,1.55841,5.45447,6.75313,6.23366c14.28473,1.29868,16.8821,3.63632,16.8821,9.09003
				c0.51947,23.63522,0.51947,40.7778,0.51947,70.1272v20.51837C175.6263,404.41345,203.67703,429.60709,248.86958,429.60709"/>
		</g>
	</g>
</g>
<g id="Endorser_Lines">
</g>
<g id="Double_Unit_Name_Lines">
	<g id="_x31_:Horizontal_Unit_Lines_Outline">
		<path style="fill:#002676;" d="M1593.33545,433.37186c-10.42822,0-19.33057,0.76318-28.23242,0.76318
			c-3.56104,0-5.5957-2.03467-5.5957-4.83252c0-2.54346,1.52588-4.83301,5.8501-5.34131
			c15.00635-1.27197,17.8042-3.30664,17.8042-9.15674c0.25439-23.3999,0.25439-44.00244,0.25439-69.9458
			c0-25.94385,0-45.78271-0.25439-69.18311c0-5.5957-3.56104-8.13916-18.31299-10.42822
			c-4.32422-0.76318-5.8501-2.79785-5.8501-5.34131c0-2.79785,1.78027-4.8325,5.34131-4.8325
			c5.08691,0,15.00635,1.27147,30.01318,1.27147c15.00635,0,26.96094-1.01707,42.47607-1.01707
			c54.93945,0,97.66992,32.30223,97.9248,88.51317c0.25391,56.97412-44.51172,90.80273-98.1792,90.80273
			C1621.56836,434.64383,1607.8335,433.37186,1593.33545,433.37186z M1638.60938,422.18045
			c39.42432-1.52588,71.98047-26.70654,71.98047-75.28711c0-47.05469-27.97803-78.84814-74.77783-78.84814
			c-7.63086,0-15.26123,0-23.40039,0.50879c-4.57812,0.25439-6.86719,2.79785-6.86719,6.86719
			c-0.50879,22.8916-0.50879,44.00244-0.50879,69.4375c0,25.18066,0,43.74805,0.50879,62.56982
			c0.25439,10.93701,4.32373,13.48047,15.51514,14.24316C1625.3833,422.18045,1632.50537,422.43484,1638.60938,422.18045z"/>
		<path style="fill:#002676;" d="M1747.97656,374.87186c0-38.66113,24.92578-64.35059,53.1582-64.35059
			c25.68945,0,40.44238,17.80469,44.76562,35.60889c1.01758,4.57861-1.52539,7.37646-4.83203,8.13916
			c-23.6543,5.5957-48.32617,10.68262-72.23535,14.75244v1.52588c0,27.46973,15.51465,49.59814,41.2041,49.59814
			c11.19141,0,20.85742-4.57812,30.01367-11.7002c1.52637-1.27148,2.54297-1.78027,3.81543-1.78027
			c3.30664,0,5.08691,4.32373,2.28906,7.88477c-9.41113,12.20898-25.18066,22.12842-43.49316,22.12842
			C1771.37695,436.6785,1747.97656,411.24344,1747.97656,374.87186z M1769.85059,357.32156
			c18.31348-3.56055,36.37207-7.12158,50.87012-10.93701c2.03418-0.7627,3.05176-1.78027,2.79688-3.81494
			c-1.27148-10.93701-11.19141-20.85693-23.39941-20.85693C1785.36523,321.71268,1773.15625,334.17606,1769.85059,357.32156z"/>
		<path style="fill:#002676;" d="M1856.32715,490.85477c0-2.54346,1.52637-4.57812,5.5957-5.08691
			c11.7002-1.78027,12.71777-2.79785,12.71777-8.90234c0.7627-30.26758,0.50879-56.71973,0.50879-98.94141
			c0-18.31348,0-30.77637-0.50879-43.49365c-0.25488-6.10449-1.27148-7.12207-14.24414-9.41113
			c-4.32324-0.76318-5.84961-2.79785-5.84961-5.08691c0-2.54346,1.52637-4.06934,5.5957-4.57812
			c8.64746-0.50879,19.83887-2.79785,31.28516-5.8501c2.54297-0.76318,4.83203,0.50879,4.83203,3.56104
			c-0.25391,7.12158-0.25391,13.48047-0.50879,19.07617c11.44629-15.26123,24.16309-21.87402,37.89844-21.87402
			c28.4873,0,48.58008,25.68896,48.58008,58.75439c0,42.22168-26.45215,67.40234-56.97363,67.40234
			c-12.20898,0-22.38281-4.32373-29.75879-10.93701c0,18.31299,0,34.08301,0.50879,51.37842
			c0,6.10449,1.27148,7.37598,16.53223,8.90234c4.83301,0.25439,6.35938,2.54346,6.35938,5.08691
			c0,2.28906-1.52637,4.32373-5.08691,4.32373c-7.37695,0-19.58496-0.7627-28.4873-0.7627
			c-8.64844,0-16.78711,0.7627-23.90918,0.7627C1858.10742,495.1785,1856.32715,493.14383,1856.32715,490.85477z
			 M1895.49707,410.22635c6.3584,8.90186,16.53223,14.24316,27.72363,14.24316c21.62012,0,37.89844-18.56738,37.89844-50.61523
			c0-29.25-15.51562-47.56299-34.5918-47.56299c-11.7002,0-22.63672,6.104-30.77637,18.31299
			c-0.25391,12.46289-0.25391,22.63721-0.25391,33.31982V410.22635z"/>
		<path style="fill:#002676;" d="M1997.23438,409.71756c0-23.90869,27.72461-35.86328,67.40234-45.52832
			c0-5.5957,0.25488-11.4458,0.50879-17.55029c0.50879-16.02393-7.62988-23.90869-19.33008-23.90869
			c-15.76953,0-27.97852,8.13916-27.97852,16.78711c0,2.54346,0.50879,5.08691,0.50879,7.37598
			c0,5.08691-4.57812,10.68262-11.7002,10.68262c-5.84961,0-10.93652-3.30664-10.93652-11.7002
			c0-13.73438,21.61914-35.35449,53.41309-35.35449c18.82129,0,37.38867,8.13916,36.37207,34.3374
			c-0.76367,19.07617-0.76367,34.59131-0.50879,48.58057c0.25391,17.0415,5.34082,24.92627,14.75195,30.26758
			c3.05176,1.78027,3.30664,4.57812,0,7.12158c-2.79785,1.78027-6.3584,4.32422-9.15625,5.8501
			c-4.32422,2.28906-5.5957,2.03467-8.39355,0.25439c-6.10449-3.81543-11.95508-11.19141-15.00684-23.6543
			c-7.63086,9.66504-23.40039,23.6543-39.93262,23.6543C2007.91699,436.93289,1997.23438,425.74149,1997.23438,409.71756z
			 M2035.6416,421.16336c8.64746,0,20.60156-6.10449,30.0127-15.77002c-0.50879-3.30615-0.7627-6.86719-0.7627-10.68262
			c-0.25488-6.61279-0.25488-13.73438-0.25488-20.60205c-28.48633,6.86768-46.5459,16.53271-46.5459,31.53906
			C2018.09082,416.07645,2025.21289,421.16336,2035.6416,421.16336z"/>
		<path style="fill:#002676;" d="M2110.16406,429.81131c0-2.54395,1.52637-4.32422,5.5957-5.0874
			c11.7002-1.78027,12.46289-2.79785,12.71777-8.90186c0.50781-13.73486,0.50781-25.68945,0.50781-42.47656
			c0-13.73486-0.25391-26.19775-0.50781-38.91504c-0.25488-6.10449-1.27246-7.12207-14.24414-9.41113
			c-4.57812-0.76318-5.84961-2.79785-5.84961-5.08691c0-2.54346,1.52637-4.06934,5.34082-4.57812
			c8.90234-0.50879,20.09375-2.79785,31.28516-5.8501c2.79785-0.76318,4.83301,0.50879,4.83301,3.56104
			c-0.25488,10.42822-0.25488,19.33008-0.25488,26.96094c13.73535-21.11133,23.90918-29.50488,35.10059-29.50488
			c6.10449,0,11.44531,1.52637,17.04102,5.0874c2.28906,1.78027,2.79785,3.56055,1.78027,6.104
			c-2.03418,4.83301-4.57812,9.91992-7.37598,14.49805c-0.50879,1.27197-1.27148,1.78027-2.54297,1.78027
			c-3.56152,0-8.13965-8.39355-16.78711-8.39355c-7.12207,0-13.48047,3.56104-27.46973,21.87402v21.87402
			c0,16.78711,0,28.7417,0.25391,42.47656c0.25488,6.104,1.27148,7.37598,16.5332,8.90186
			c5.08691,0.50879,6.6123,2.54346,6.6123,5.0874c0,2.28906-1.78027,4.32373-5.08691,4.32373
			c-7.37598,0-19.83887-0.76318-28.48633-0.76318c-8.64844,0-16.78711,0.76318-23.90918,0.76318
			C2111.69043,434.13504,2110.16406,432.10037,2110.16406,429.81131z"/>
		<path style="fill:#002676;" d="M2226.14355,405.90213c0.25391-27.46973,0.25391-53.15869,0-80.11963h-12.97168
			c-3.05273,0-5.08691-1.52637-5.08691-4.32422c0-1.78027,0.7627-3.05176,4.57812-5.34131
			c7.88477-4.57812,17.29492-12.71729,26.19727-25.68896c3.05273-3.81543,8.13965-3.05225,8.13965,2.03467
			c0,6.61328-0.25488,13.48047-0.25488,20.60254c11.19141,0.25391,21.87402,0.25391,31.79395-0.25439
			c4.57812-0.25439,6.86719,2.79785,6.86719,6.61279c0,3.56104-2.28906,6.61328-6.86719,6.35889
			c-9.91992-0.25439-20.60254-0.25439-31.79395,0c-0.25391,27.72412,0,55.70215,0,76.30469
			c0,11.69971,4.83301,18.82178,15.76953,18.82178c5.08789,0,9.41113-1.27197,14.24414-3.56104
			c2.28906-1.01758,3.56055-1.52588,4.83203-1.52588c3.30664,0,5.3418,4.32373,2.03516,7.37598
			c-7.37598,7.63037-17.5498,12.97168-29.25,12.97168C2235.2998,436.16971,2225.63477,425.74149,2226.14355,405.90213z"/>
		<path style="fill:#002676;" d="M2289.72852,429.81131c0-2.54395,1.52637-4.57861,5.5957-5.0874
			c11.7002-1.78027,12.46289-2.79785,12.71777-8.90186c0.50781-13.73486,0.50781-25.68945,0.50781-42.47656
			c0-13.73486-0.25391-26.19775-0.50781-38.91504c-0.25488-6.10449-1.27246-7.12207-14.24414-9.41113
			c-4.57812-0.76318-5.84961-2.79785-5.84961-5.08691c0-2.54346,1.52637-4.06934,5.34082-4.57812
			c8.90234-0.50879,20.09375-2.79785,31.28516-5.8501c2.79785-0.76318,4.83301,0.50879,4.83301,3.56104
			c0,6.61279-0.25488,12.71729-0.25488,18.31299c11.7002-12.46338,25.18066-21.11084,39.16992-21.11084
			c15.26074,0,26.70703,7.88477,31.03027,22.89111c12.20898-13.22607,26.19824-22.89111,40.9502-22.89111
			c19.58496,0,33.57422,13.22607,32.81152,37.89795c-0.25488,10.17383-0.25488,17.29541-0.25488,25.18018
			c0,16.78711,0,28.7417,0.25488,42.47656c0.25391,6.104,1.0166,7.12158,12.7168,8.90186
			c4.32422,0.50879,5.85059,2.54346,5.85059,5.0874c0,2.28906-1.78027,4.32373-5.08691,4.32373
			c-7.37598,0-15.26172-0.76318-23.90918-0.76318c-8.39355,0-16.27832,0.76318-23.6543,0.76318
			c-3.30664,0-4.83301-2.03467-4.83301-4.32373c0-2.54395,1.27246-4.57861,5.3418-5.0874
			c11.44531-1.78027,12.20898-2.79785,12.46289-8.90186c0.50879-13.73486,0.50879-25.68945,0.50879-42.47656
			c0-7.63037,0-14.49756-0.25391-24.16309c-0.50879-13.22607-5.85059-23.14551-21.36621-23.14551
			c-10.17383,0-21.36523,6.86719-30.0127,15.76953c0.25391,2.03467,0.25391,4.06934,0.25391,6.35889
			c-0.25391,10.17383-0.25391,17.29541-0.25391,25.18018c0,16.78711,0,28.7417,0.25391,42.47656
			c0.25488,6.104,1.01758,7.12158,12.71777,8.90186c3.81543,0.50879,5.3418,2.54346,5.3418,5.0874
			c0,2.28906-1.78125,4.32373-5.08691,4.32373c-7.12207,0-15.00684-0.76318-23.40039-0.76318s-16.27832,0.76318-23.6543,0.76318
			c-3.30664,0-5.08691-2.03467-5.08691-4.32373c0-2.54395,1.52539-4.57861,5.5957-5.0874
			c11.44531-1.78027,12.20801-2.79785,12.46289-8.90186c0.50879-13.73486,0.50879-25.68945,0.50879-42.47656
			c0-7.63037,0-14.49756-0.25488-24.16309c-0.50879-13.22607-5.84961-23.14551-21.36523-23.14551
			c-10.17383,0-21.36523,6.86719-30.0127,15.76953v31.53906c0,16.78711,0,28.7417,0.25391,42.47656
			c0.25488,6.104,1.01758,7.12158,12.71777,8.90186c3.81543,0.50879,5.34082,2.54346,5.34082,5.0874
			c0,2.28906-1.78027,4.32373-5.08691,4.32373c-7.12109,0-15.00586-0.76318-23.39941-0.76318
			c-8.64844,0-16.78711,0.76318-23.90918,0.76318C2291.25488,434.13504,2289.72852,432.10037,2289.72852,429.81131z"/>
		<path style="fill:#002676;" d="M2498.54492,374.87186c0-38.66113,24.92578-64.35059,53.15918-64.35059
			c25.68848,0,40.44141,17.80469,44.76465,35.60889c1.01758,4.57861-1.52539,7.37646-4.83203,8.13916
			c-23.6543,5.5957-48.32617,10.68262-72.23535,14.75244v1.52588c0,27.46973,15.51562,49.59814,41.2041,49.59814
			c11.19141,0,20.85742-4.57812,30.01367-11.7002c1.52637-1.27148,2.54297-1.78027,3.81543-1.78027
			c3.30664,0,5.08691,4.32373,2.28906,7.88477c-9.41113,12.20898-25.18066,22.12842-43.49414,22.12842
			C2521.94531,436.6785,2498.54492,411.24344,2498.54492,374.87186z M2520.41895,357.32156
			c18.3125-3.56055,36.37207-7.12158,50.86914-10.93701c2.03516-0.7627,3.05273-1.78027,2.79785-3.81494
			c-1.27148-10.93701-11.19043-20.85693-23.39941-20.85693C2535.93359,321.71268,2523.72559,334.17606,2520.41895,357.32156z"/>
		<path style="fill:#002676;" d="M2607.91211,429.81131c0-2.54395,1.52637-4.57861,5.5957-5.0874
			c11.7002-1.78027,12.46289-2.79785,12.71777-8.90186c0.50781-13.73486,0.50781-25.68945,0.50781-42.47656
			c0-13.73486-0.25391-26.19775-0.50781-38.91504c-0.25488-6.10449-1.27246-7.12207-14.24414-9.41113
			c-4.57812-0.76318-5.84961-2.79785-5.84961-5.08691c0-2.54346,1.52637-4.06934,5.34082-4.57812
			c8.90234-0.50879,20.09375-2.79785,31.28516-5.8501c2.79785-0.76318,4.83301,0.50879,4.83301,3.56104
			c0,6.61279-0.25488,12.71729-0.25488,18.31299c11.9541-12.71777,26.19824-21.11084,40.69629-21.11084
			c19.58496,0,33.82812,13.22607,33.31934,37.89795c-0.25391,10.17383-0.25391,17.29541-0.25391,25.18018
			c0,16.78711,0,28.7417,0.25391,42.47656c0.25488,6.104,1.01758,7.12158,12.71777,8.90186
			c4.32324,0.50879,5.84961,2.54346,5.84961,5.0874c0,2.28906-1.78027,4.32373-5.08691,4.32373
			c-7.37598,0-15.51562-0.76318-23.90918-0.76318c-8.64746,0-16.53223,0.76318-23.6543,0.76318
			c-3.30664,0-5.08691-2.03467-5.08691-4.32373c0-2.54395,1.52637-4.57861,5.3418-5.0874
			c11.7002-1.78027,12.46289-2.79785,12.7168-8.90186c0.25488-13.73486,0.25488-25.68945,0.25488-42.47656
			c0-7.63037,0-14.49756-0.25488-24.16309c-0.25391-13.22607-5.84961-23.14551-22.12793-23.14551
			c-10.42871,0-22.12793,6.86719-31.03027,15.76953v31.53906c0,16.78711,0,28.7417,0.25391,42.47656
			c0.25488,6.104,1.01758,7.12158,12.71777,8.90186c3.81543,0.50879,5.34082,2.54346,5.34082,5.0874
			c0,2.28906-1.52539,4.32373-5.08691,4.32373c-7.12109,0-15.00586-0.76318-23.39941-0.76318
			c-8.64844,0-16.78711,0.76318-23.90918,0.76318C2609.43848,434.13504,2607.91211,432.10037,2607.91211,429.81131z"/>
		<path style="fill:#002676;" d="M2758.74023,405.90213c0.25391-27.46973,0.25391-53.15869,0-80.11963h-12.97168
			c-3.05273,0-5.08691-1.52637-5.08691-4.32422c0-1.78027,0.7627-3.05176,4.57812-5.34131
			c7.88477-4.57812,17.2959-12.71729,26.19727-25.68896c3.05273-3.81543,8.13965-3.05225,8.13965,2.03467
			c0,6.61328-0.25488,13.48047-0.25488,20.60254c11.19141,0.25391,21.87402,0.25391,31.79395-0.25439
			c4.57812-0.25439,6.86719,2.79785,6.86719,6.61279c0,3.56104-2.28906,6.61328-6.86719,6.35889
			c-9.91992-0.25439-20.60254-0.25439-31.79395,0c-0.25391,27.72412,0,55.70215,0,76.30469
			c0,11.69971,4.83301,18.82178,15.77051,18.82178c5.08691,0,9.41016-1.27197,14.24316-3.56104
			c2.28906-1.01758,3.56055-1.52588,4.83203-1.52588c3.30664,0,5.3418,4.32373,2.03516,7.37598
			c-7.37598,7.63037-17.5498,12.97168-29.25,12.97168C2767.89648,436.16971,2758.23145,425.74149,2758.74023,405.90213z"/>
		<path style="fill:#002676;" d="M2866.5791,374.10867c0-37.38916,24.92676-63.84131,56.97461-63.84131
			c30.52148,0,55.95703,25.43457,55.95703,62.56934c0,37.64404-25.18066,63.8418-56.97461,63.8418
			C2891.75977,436.6785,2866.5791,411.49783,2866.5791,374.10867z M2958.14551,378.1785
			c0-36.37207-17.55078-55.95703-37.13574-55.95703c-19.83887,0-33.06543,18.56738-33.06543,46.2915
			c0,36.37207,17.55078,55.95654,36.88086,55.95654C2944.91895,424.46951,2958.14551,405.90213,2958.14551,378.1785z"/>
		<path style="fill:#002676;" d="M2988.15527,429.81131c0-2.54395,1.52637-4.32422,5.5957-5.0874
			c11.7002-1.78027,12.46289-2.79785,12.71777-8.90186c0.50879-24.92627,0.50879-48.32666,0.50879-70.96338v-19.33057
			c-5.08789,0-10.1748,0-15.00684,0.25439c-4.32422,0.25439-6.86719-2.79785-6.86719-6.35889
			c0-3.81494,2.54297-6.61279,6.86719-6.61279c4.83203,0.25439,9.66504,0.5083,14.75195,0.5083
			c0-5.34131-0.25391-10.17383-0.25391-14.24316c-0.50879-36.11768,15.76953-58.75487,48.07129-58.75487
			c18.05859,0,31.03125,9.15674,31.03125,19.07616c0,5.5957-3.56152,9.91992-9.66602,9.91992
			c-11.7002,0-9.91895-16.02391-25.94336-16.02391c-16.78711,0-23.40039,16.78661-23.40039,38.66063
			c0,5.8501,0.25488,13.48047,0.25488,21.36523c7.62988,0,15.00684,0,21.87402-0.5083
			c4.57812-0.25439,6.86719,2.79785,6.86719,6.61279c0,3.56104-2.28906,6.61328-6.86719,6.35889
			c-6.86719-0.25439-13.98926-0.25439-21.62012-0.25439c0.25488,6.86719,0.25488,13.48047,0.25488,19.33057
			c0,22.63672,0,46.03711,0.25391,70.96338c0.25488,6.104,1.27148,7.37598,16.5332,8.90186
			c5.08691,0.50879,6.6123,2.54346,6.6123,5.0874c0,2.28906-1.78027,4.32373-5.08691,4.32373
			c-7.37598,0-19.83887-0.76318-28.48633-0.76318c-8.64844,0-16.78711,0.76318-23.90918,0.76318
			C2989.68164,434.13504,2988.15527,432.10037,2988.15527,429.81131z"/>
		<path style="fill:#002676;" d="M3117.10254,423.45242c-3.81543-3.05225-5.34082-5.8501-5.5957-9.66553
			c-0.7627-6.86719-1.27148-16.53223-1.01758-24.41748c0.25488-4.06934,2.03516-6.104,4.83301-6.104
			c2.54297,0,4.57812,1.78027,5.34082,4.83252c5.85059,27.46973,21.62012,36.37158,42.98535,36.37158
			c22.12793,0,38.15234-13.73438,38.15234-33.06494c0-42.22217-86.22461-36.37207-86.22461-90.03955
			c0-27.72412,22.6377-48.32616,56.71973-48.32616c11.7002,0,26.45312,2.54346,37.89844,9.66502
			c4.06934,2.28906,5.34082,4.57812,5.5957,7.63037c0.25391,6.10449,0.50879,13.48047,0.25391,20.60254
			c0,3.30615-1.52539,5.5957-4.57812,5.5957c-2.79785,0-4.32324-1.78076-5.5957-6.10449
			c-5.84961-17.2959-18.05859-25.43506-35.35449-25.43506c-19.07617,0-33.57422,10.93701-33.57422,28.7417
			c0,42.47607,86.9873,36.62598,86.9873,90.29346c0,28.7417-22.63672,52.65039-61.80664,52.65039
			C3143.80957,436.6785,3128.80273,431.59158,3117.10254,423.45242z"/>
		<path style="fill:#002676;" d="M3248.08789,405.90213c0.25391-27.46973,0.25391-53.15869,0-80.11963h-12.97168
			c-3.05273,0-5.08691-1.52637-5.08691-4.32422c0-1.78027,0.7627-3.05176,4.57812-5.34131
			c7.88477-4.57812,17.2959-12.71729,26.19727-25.68896c3.05273-3.81543,8.13965-3.05225,8.13965,2.03467
			c0,6.61328-0.25488,13.48047-0.25488,20.60254c11.19141,0.25391,21.87402,0.25391,31.79395-0.25439
			c4.57812-0.25439,6.86719,2.79785,6.86719,6.61279c0,3.56104-2.28906,6.61328-6.86719,6.35889
			c-9.91992-0.25439-20.60254-0.25439-31.79395,0c-0.25391,27.72412,0,55.70215,0,76.30469
			c0,11.69971,4.83301,18.82178,15.77051,18.82178c5.08691,0,9.41016-1.27197,14.24316-3.56104
			c2.28906-1.01758,3.56055-1.52588,4.83203-1.52588c3.30664,0,5.3418,4.32373,2.03516,7.37598
			c-7.37598,7.63037-17.5498,12.97168-29.25,12.97168C3257.24414,436.16971,3247.5791,425.74149,3248.08789,405.90213z"/>
		<path style="fill:#002676;" d="M3316.76172,409.71756c0-23.90869,27.72461-35.86328,67.40234-45.52832
			c0-5.5957,0.25488-11.4458,0.50879-17.55029c0.50879-16.02393-7.62988-23.90869-19.33008-23.90869
			c-15.76953,0-27.97852,8.13916-27.97852,16.78711c0,2.54346,0.50879,5.08691,0.50879,7.37598
			c0,5.08691-4.57812,10.68262-11.7002,10.68262c-5.84961,0-10.93652-3.30664-10.93652-11.7002
			c0-13.73438,21.61914-35.35449,53.41309-35.35449c18.82129,0,37.38867,8.13916,36.37207,34.3374
			c-0.76367,19.07617-0.76367,34.59131-0.50879,48.58057c0.25391,17.0415,5.34082,24.92627,14.75195,30.26758
			c3.05176,1.78027,3.30664,4.57812,0,7.12158c-2.79785,1.78027-6.3584,4.32422-9.15625,5.8501
			c-4.32422,2.28906-5.5957,2.03467-8.39355,0.25439c-6.10449-3.81543-11.95508-11.19141-15.00684-23.6543
			c-7.63086,9.66504-23.40039,23.6543-39.93262,23.6543C3327.44434,436.93289,3316.76172,425.74149,3316.76172,409.71756z
			 M3355.16895,421.16336c8.64746,0,20.60156-6.10449,30.0127-15.77002c-0.50879-3.30615-0.7627-6.86719-0.7627-10.68262
			c-0.25488-6.61279-0.25488-13.73438-0.25488-20.60205c-28.48633,6.86768-46.5459,16.53271-46.5459,31.53906
			C3337.61816,416.07645,3344.74023,421.16336,3355.16895,421.16336z"/>
		<path style="fill:#002676;" d="M3442.15723,405.90213c0.25391-27.46973,0.25391-53.15869,0-80.11963h-12.97168
			c-3.05273,0-5.08691-1.52637-5.08691-4.32422c0-1.78027,0.7627-3.05176,4.57812-5.34131
			c7.88477-4.57812,17.29492-12.71729,26.19727-25.68896c3.05273-3.81543,8.13965-3.05225,8.13965,2.03467
			c0,6.61328-0.25488,13.48047-0.25488,20.60254c11.19141,0.25391,21.87402,0.25391,31.79395-0.25439
			c4.57812-0.25439,6.86719,2.79785,6.86719,6.61279c0,3.56104-2.28906,6.61328-6.86719,6.35889
			c-9.91992-0.25439-20.60254-0.25439-31.79395,0c-0.25391,27.72412,0,55.70215,0,76.30469
			c0,11.69971,4.83301,18.82178,15.76953,18.82178c5.08789,0,9.41113-1.27197,14.24414-3.56104
			c2.28906-1.01758,3.56055-1.52588,4.83203-1.52588c3.30664,0,5.3418,4.32373,2.03516,7.37598
			c-7.37598,7.63037-17.5498,12.97168-29.25,12.97168C3451.31348,436.16971,3441.64844,425.74149,3442.15723,405.90213z"/>
		<path style="fill:#002676;" d="M3505.74219,429.81131c0-2.54395,1.52637-4.32422,5.5957-5.0874
			c11.7002-1.78027,12.46289-2.79785,12.71777-8.90186c0.50781-13.73486,0.50781-25.68945,0.50781-42.47656
			c0-13.73486-0.25391-26.19775-0.50781-38.91504c-0.25488-6.10449-1.27246-7.12207-14.24414-9.41113
			c-4.57812-0.76318-5.84961-2.79785-5.84961-5.08691c0-2.54346,1.52637-4.06934,5.34082-4.57812
			c8.90234-0.50879,20.34863-2.79785,31.54004-5.8501c2.54297-0.76318,4.83203,0.50879,4.83203,3.56104
			c-0.7627,33.82812-0.7627,46.54541-0.7627,60.28027c0,16.78711,0,28.7417,0.25391,42.47656
			c0.25488,6.104,1.01758,7.12158,12.71777,8.90186c4.32422,0.76318,5.84961,2.54346,5.84961,5.0874
			c0,2.28906-1.78027,4.32373-5.08691,4.32373c-7.37598,0-15.26074-0.76318-23.9082-0.76318
			c-8.64844,0-16.78711,0.76318-23.90918,0.76318C3507.26855,434.13504,3505.74219,432.10037,3505.74219,429.81131z
			 M3518.96875,272.87772c0-7.88477,6.10352-15.26074,15.00586-15.26074c8.39355,0,15.00684,6.10449,15.00684,15.26074
			c0,7.63086-6.10449,15.00684-15.00684,15.00684C3525.58105,287.88455,3518.96875,281.78006,3518.96875,272.87772z"/>
		<path style="fill:#002676;" d="M3578.4834,427.01346c-3.56055-2.79785-4.57812-5.0874-5.08691-8.90234
			c-0.50879-4.83252-0.7627-10.17383-0.7627-15.00684c0-4.06934,1.78027-6.104,4.57812-6.104
			c2.28906,0,3.81543,1.01709,4.83203,4.57812c5.08789,16.78711,16.5332,23.90869,33.06543,23.90869
			c15.26172,0,24.41797-9.15674,24.41797-20.09375c0-28.48682-63.33301-21.11084-63.33301-59.77148
			c0-20.60254,17.2959-35.35449,41.2041-35.35449c12.71777,0,24.41797,3.30615,31.28516,8.13916
			c3.81543,2.28906,4.57812,5.08691,5.08691,8.90186c0.50879,3.81543,0.50879,8.39355,0.50879,12.46338
			c0,4.32373-1.52637,6.3584-4.06934,6.3584c-2.54395,0-3.81543-1.52588-5.08691-4.57812
			c-4.83301-13.73486-15.51562-20.09375-28.74121-20.09375c-13.48047,0-21.11133,8.39355-21.11133,18.05908
			c0,26.45215,63.8418,20.85645,63.8418,60.28076c0,22.12793-19.33105,37.13477-43.74805,37.13477
			C3600.6123,436.93289,3586.36816,433.11746,3578.4834,427.01346z"/>
		<path style="fill:#002676;" d="M3682.76855,405.90213c0.25391-27.46973,0.25391-53.15869,0-80.11963h-12.97168
			c-3.05273,0-5.08691-1.52637-5.08691-4.32422c0-1.78027,0.7627-3.05176,4.57812-5.34131
			c7.88477-4.57812,17.29492-12.71729,26.19727-25.68896c3.05273-3.81543,8.13965-3.05225,8.13965,2.03467
			c0,6.61328-0.25488,13.48047-0.25488,20.60254c11.19141,0.25391,21.87402,0.25391,31.79395-0.25439
			c4.57812-0.25439,6.86719,2.79785,6.86719,6.61279c0,3.56104-2.28906,6.61328-6.86719,6.35889
			c-9.91992-0.25439-20.60254-0.25439-31.79395,0c-0.25391,27.72412,0,55.70215,0,76.30469
			c0,11.69971,4.83301,18.82178,15.76953,18.82178c5.08789,0,9.41113-1.27197,14.24414-3.56104
			c2.28906-1.01758,3.56055-1.52588,4.83203-1.52588c3.30664,0,5.3418,4.32373,2.03516,7.37598
			c-7.37598,7.63037-17.5498,12.97168-29.25,12.97168C3691.9248,436.16971,3682.25977,425.74149,3682.76855,405.90213z"/>
		<path style="fill:#002676;" d="M3746.35352,429.81131c0-2.54395,1.52637-4.32422,5.5957-5.0874
			c11.7002-1.78027,12.46289-2.79785,12.71777-8.90186c0.50781-13.73486,0.50781-25.68945,0.50781-42.47656
			c0-13.73486-0.25391-26.19775-0.50781-38.91504c-0.25488-6.10449-1.27246-7.12207-14.24414-9.41113
			c-4.57812-0.76318-5.84961-2.79785-5.84961-5.08691c0-2.54346,1.52637-4.06934,5.34082-4.57812
			c8.90234-0.50879,20.34863-2.79785,31.54004-5.8501c2.54297-0.76318,4.83203,0.50879,4.83203,3.56104
			c-0.7627,33.82812-0.7627,46.54541-0.7627,60.28027c0,16.78711,0,28.7417,0.25391,42.47656
			c0.25488,6.104,1.01758,7.12158,12.71777,8.90186c4.32422,0.76318,5.84961,2.54346,5.84961,5.0874
			c0,2.28906-1.78027,4.32373-5.08691,4.32373c-7.37598,0-15.26074-0.76318-23.9082-0.76318
			c-8.64844,0-16.78711,0.76318-23.90918,0.76318C3747.87988,434.13504,3746.35352,432.10037,3746.35352,429.81131z
			 M3759.58008,272.87772c0-7.88477,6.10352-15.26074,15.00586-15.26074c8.39355,0,15.00684,6.10449,15.00684,15.26074
			c0,7.63086-6.10449,15.00684-15.00684,15.00684C3766.19238,287.88455,3759.58008,281.78006,3759.58008,272.87772z"/>
		<path style="fill:#002676;" d="M3811.97266,376.39774c0-37.89795,25.94434-65.87646,57.7373-65.87646
			c25.94336,0,40.1875,15.00684,40.1875,26.70703c0,7.12158-4.83301,10.68262-10.68262,10.68262
			c-4.83301,0-10.42871-3.56104-12.97168-12.71777c-2.79785-9.66504-8.13965-13.22607-18.05859-13.22607
			c-18.31348,0-35.10059,16.27832-35.10059,48.58057c0,27.46973,14.75195,49.59814,38.91504,49.59814
			c11.7002,0,21.36523-4.57812,31.79395-13.22607c1.52637-1.27197,2.54395-1.78027,3.81543-1.78027
			c3.30664,0,5.08691,4.06934,2.28906,7.88477c-11.44629,14.75195-26.70703,23.6543-45.52832,23.6543
			C3834.61035,436.6785,3811.97266,412.26102,3811.97266,376.39774z"/>
		<path style="fill:#002676;" d="M3926.17285,427.01346c-3.56055-2.79785-4.57812-5.0874-5.08691-8.90234
			c-0.50879-4.83252-0.7627-10.17383-0.7627-15.00684c0-4.06934,1.78027-6.104,4.57812-6.104
			c2.28906,0,3.81543,1.01709,4.83203,4.57812c5.08789,16.78711,16.5332,23.90869,33.06543,23.90869
			c15.26172,0,24.41797-9.15674,24.41797-20.09375c0-28.48682-63.33301-21.11084-63.33301-59.77148
			c0-20.60254,17.2959-35.35449,41.2041-35.35449c12.71777,0,24.41797,3.30615,31.28516,8.13916
			c3.81543,2.28906,4.57812,5.08691,5.08691,8.90186c0.50879,3.81543,0.50879,8.39355,0.50879,12.46338
			c0,4.32373-1.52637,6.3584-4.06934,6.3584c-2.54395,0-3.81543-1.52588-5.08691-4.57812
			c-4.83301-13.73486-15.51562-20.09375-28.74121-20.09375c-13.48047,0-21.11133,8.39355-21.11133,18.05908
			c0,26.45215,63.8418,20.85645,63.8418,60.28076c0,22.12793-19.33105,37.13477-43.74805,37.13477
			C3948.30176,436.93289,3934.05762,433.11746,3926.17285,427.01346z"/>
	</g>
</g>
</svg>
