<?xml version="1.0" encoding="iso-8859-1"?>
<!-- Generator: Adobe Illustrator 28.6.0, SVG Export Plug-In . SVG Version: 9.03 Build 54939)  -->
<svg version="1.1" xmlns="http://www.w3.org/2000/svg" xmlns:xlink="http://www.w3.org/1999/xlink" x="0px" y="0px"
	 viewBox="0 0 2749.53223 896.15173" style="enable-background:new 0 0 2749.53223 896.15173;" xml:space="preserve">
<g id="Backgrounds">
	<rect id="_x35_:Vertical_BG" x="0.69323" style="fill:#FFFFFF;" width="2749.53223" height="896.15173"/>
</g>
<g id="Berkeley_Wordmarks">
	<g id="_x35_:Wordmark">
		<g>
			<path style="fill:#002676;" d="M1395.33252,489.53378c12.98694,0,25.19373-9.61023,49.60815-60.7767
				c16.62317-36.36227,29.08972-68.56805,42.07642-101.55374c4.15588-10.6492,6.23376-12.72708,12.72644-14.54446
				c4.67517-1.29871,6.49329-3.11688,6.49329-5.97397c0-2.59732-1.55835-4.93497-5.45447-4.93497
				c-5.71411,0-12.46655,0.77921-20.25867,0.77921c-8.05176,0-14.0249-0.77921-19.9989-0.77921
				c-3.63635,0-5.45435,2.07791-5.45435,4.67529c0,2.85706,1.81799,4.6752,5.97388,5.97388
				c11.42761,3.11612,12.46655,8.05112,8.05176,21.55734c-7.01282,21.29761-14.80493,41.81598-26.75208,69.08752
				c-10.12964-25.19363-18.70093-47.78992-27.27148-73.24332c-3.11682-9.86993-2.07788-14.0257,10.12891-17.40155
				c4.67529-1.29868,6.23376-2.85712,6.23376-5.7142c0-2.85706-2.07788-4.93497-5.71423-4.93497
				c-7.79211,0-15.84314,0.77921-26.49231,0.77921c-11.42773,0-19.73926-0.77921-27.79102-0.77921
				c-3.896,0-5.7135,2.33765-5.7135,4.93497c0,3.11682,1.55774,4.67526,6.23291,5.97397
				c5.974,1.55765,7.79211,3.63553,11.42847,12.98602c14.28467,35.58307,27.01172,67.00967,43.63416,109.60556
				c-11.16785,20.5184-19.47949,25.19363-30.64807,27.27155c-9.09009,1.55841-15.06396,7.27188-15.06396,14.54446
				C1381.30762,483.04037,1385.46338,489.53378,1395.33252,489.53378 M1314.29871,312.13937
				c16.62231,0,24.15466,15.06396,24.15466,21.03784c0,2.07791-1.03894,3.63635-3.37659,4.15579
				c-14.02502,3.63556-30.90784,7.01215-48.56909,10.12894C1289.62451,323.82678,1301.31262,312.13937,1314.29871,312.13937
				 M1316.11682,429.01682c22.59631,0,38.17969-11.16791,47.53027-22.33655c4.15564-4.935,1.55835-9.35049-2.59741-9.35049
				c-1.03894,0-2.07788,0.51947-3.11682,1.03894c-10.9082,6.75317-19.47949,10.38947-31.1676,10.38947
				c-25.7124,0-41.03674-22.59628-41.03674-48.30942v-0.51947c25.45337-3.63632,50.38721-8.57126,76.10034-14.5452
				c3.37659-0.77921,5.71423-3.37656,4.93494-7.27188c-4.15564-18.70096-21.29749-39.21936-50.90662-39.21936
				s-56.88074,27.53125-56.88074,67.26938C1258.97644,403.56345,1283.1311,429.01682,1316.11682,429.01682 M1194.82458,426.93893
				c8.57068,0,17.66138-0.77921,28.05005-0.77921c10.3894,0,19.99963,0.77921,28.57031,0.77921
				c3.89587,0,5.71411-2.33765,5.71411-4.935c0-2.85706-1.81824-5.45447-6.23364-5.97318
				c-11.68738-1.29868-13.76538-2.59738-13.76538-8.05179c-0.51941-25.19366-0.51941-48.82886-0.51941-72.20435
				c0-21.55811,0-45.19333,0.77917-97.65848c0-3.37584-2.07776-4.15506-4.93494-3.37584
				c-13.50549,3.37584-26.49231,5.4537-37.14075,6.49266c-4.41553,0.25974-6.23364,2.33765-6.23364,4.93498
				c0,2.85709,1.81812,4.935,6.75317,5.71422c11.42761,2.07785,12.7262,3.37656,12.98596,9.35046
				c0.51953,26.23257,0.51953,50.90674,0.51953,74.54199c0,23.37549,0,47.01068-0.51953,72.20435
				c-0.25977,5.45441-1.81812,6.49335-13.50549,8.05179c-4.67517,0.51871-6.23364,3.11612-6.23364,5.97318
				C1189.11047,424.60129,1190.92859,426.93893,1194.82458,426.93893 M1136.12732,312.13937
				c16.62231,0,24.15466,15.06396,24.15466,21.03784c0,2.07791-1.03894,3.63635-3.37659,4.15579
				c-14.02576,3.63556-30.90784,7.01215-48.56909,10.12894C1111.45312,323.82678,1123.1405,312.13937,1136.12732,312.13937
				 M1137.94543,429.01682c22.59631,0,38.17969-11.16791,47.53027-22.33655c4.15564-4.935,1.55835-9.35049-2.59741-9.35049
				c-1.03894,0-2.07788,0.51947-3.11694,1.03894c-10.90881,6.75317-19.47937,10.38947-31.16748,10.38947
				c-25.71313,0-41.03674-22.59628-41.03674-48.30942v-0.51947c25.45325-3.63632,50.38721-8.57126,76.10034-14.5452
				c3.37659-0.77921,5.71423-3.37656,4.93494-7.27188c-4.15576-18.70096-21.29761-39.21936-50.90674-39.21936
				s-56.88062,27.53125-56.88062,67.26938C1080.80505,403.56345,1104.95972,429.01682,1137.94543,429.01682 M950.42059,426.93893
				c8.57129,0,17.14258-0.77921,27.53131-0.77921c10.3894,0,19.2204,0.77921,27.79095,0.77921
				c3.896,0,5.71417-2.33765,5.71417-4.935c0-2.85706-1.55841-4.9342-6.23364-5.97318
				c-11.68732-1.81818-12.98602-2.59738-12.98602-8.05179c-0.25977-8.31155-0.25977-16.62311-0.25977-24.67419
				c5.71417-3.63629,11.42761-7.53235,16.88214-11.42838c10.90881,16.36337,22.07678,33.24548,32.9856,48.82886
				c3.37659,4.935,5.19482,5.97394,10.64856,5.97394c7.79199,0,17.40222-0.25974,28.57019,0
				c3.896,0,5.97388-2.33765,5.97388-5.19473c0-2.59732-1.03894-4.935-6.49341-5.4537
				c-7.27185-0.77921-11.16785-4.4155-17.40161-12.46732c-10.90881-14.8042-22.33655-31.68704-32.9856-48.04968
				c0-0.2597,0.25977-0.2597,0.51941-0.51944c19.99963-17.40158,33.24548-30.64813,43.11536-43.63416
				c1.29871-1.81818,2.078-3.37656,2.078-4.93494c0-3.11688-2.078-5.19473-6.23364-4.93506
				c-12.20764,1.03897-23.37549,1.03897-37.1416,0.25977c-5.45447-0.25977-7.01282,2.33765-7.01282,4.93497
				c0,2.33765,1.81812,4.935,5.45447,5.7142l5.1947,1.29871c8.57129,2.07715,8.57129,9.09-2.07788,20.25864
				c-11.42761,12.20685-26.23254,23.89496-42.33545,34.02393v-32.20575c0-21.55811,0-45.19333,0.77917-97.65848
				c0-3.37584-2.07788-4.15506-4.93494-3.37584c-13.50562,3.37584-26.49231,5.4537-37.14154,6.49266
				c-4.41473,0.25974-6.23291,2.33765-6.23291,4.93498c0,2.85709,1.81818,4.935,6.75238,5.71422
				c11.42841,2.07785,12.72711,3.37656,12.98688,9.35046c0.51947,26.23257,0.51947,50.90674,0.51947,74.54199
				c0,23.37549,0,47.01068-0.51947,72.20435c-0.25977,5.45441-1.29871,6.23361-12.98688,8.05179
				c-4.6745,1.03897-6.23291,3.11612-6.23291,5.97318C944.70715,424.60129,946.52533,426.93893,950.42059,426.93893
				 M854.06305,426.93893c8.31152,0,17.14252-0.77921,27.27155-0.77921c10.1297,0,21.81781,0.77921,30.1286,0.77921
				c3.63629,0,5.45441-2.33765,5.45441-4.935c0-2.85706-1.55841-5.19394-6.75311-5.97318
				c-13.24573-1.55844-14.54443-2.85709-14.8042-8.31155c-0.51947-14.28549-0.51947-27.01178-0.51947-43.63416v-21.81778
				c13.50549-17.92108,19.73926-21.55731,26.49237-21.55731c8.05182,0,14.8042,10.12967,18.18073,10.12967
				c1.81818,0,2.85712-0.51947,4.15582-3.11682c2.59729-5.19473,5.19464-10.38947,7.79205-15.84317
				c1.55841-3.37656,0.77924-5.19473-2.33765-7.27258c-6.23364-4.15579-12.72699-7.01285-19.21967-7.01285
				c-11.42841,0-21.81787,9.6102-34.80389,30.90781c0-8.57129,0.2597-17.92105,0.51947-28.31049
				c0-3.37656-2.07794-4.15576-4.93494-3.37656c-13.50635,3.63629-26.23267,5.71417-37.1416,6.49338
				c-4.41473,0.5195-5.97314,2.33765-5.97314,5.19473s1.55841,4.935,6.49268,5.71344
				c11.42834,2.07788,12.72705,3.37656,12.98676,9.09076c0.51947,12.98682,0.51947,26.75208,0.51947,40.77777
				c0,16.62238,0,29.34866-0.51947,43.63416c-0.2597,5.45447-1.03894,6.75311-12.46729,8.31155
				c-4.6745,1.03897-6.23291,3.11612-6.23291,5.97318C848.34961,424.60129,850.16772,426.93893,854.06305,426.93893
				 M790.95166,312.13937c16.62305,0,24.15466,15.06396,24.15466,21.03784c0,2.07791-1.03894,3.63635-3.37579,4.15579
				c-14.02576,3.63556-30.90784,7.01215-48.56989,10.12894C766.27747,323.82678,777.96558,312.13937,790.95166,312.13937
				 M792.76984,429.01682c22.59625,0,38.18036-11.16791,47.53015-22.33655c4.15576-4.935,1.55841-9.35049-2.59662-9.35049
				c-1.039,0-2.07788,0.51947-3.11682,1.03894c-10.90894,6.75317-19.48022,10.38947-31.1676,10.38947
				c-25.71307,0-41.03674-22.59628-41.03674-48.30942v-0.51947c25.45264-3.63632,50.38727-8.57126,76.10034-14.5452
				c3.37585-0.77921,5.71344-3.37656,4.93427-7.27188c-4.15503-18.70096-21.29761-39.21936-50.90674-39.21936
				c-29.60919,0-56.87994,27.53125-56.87994,67.26938C735.63013,403.56345,759.78485,429.01682,792.76984,429.01682
				 M634.33759,412.65421c-7.79138-1.81818-10.38873-4.4155-10.64844-13.76602c-0.51947-19.7392-0.51947-35.06287-0.51947-63.11356
				v-0.5195c44.15363-1.03894,67.26935,8.83026,67.26935,41.0368c0,18.95996-13.50555,37.92065-40.77704,37.92065
				C642.64911,414.21259,638.23358,413.69312,634.33759,412.65421 M623.68915,267.98502c0-5.19473,1.29865-7.27182,5.1947-8.83026
				c3.11682-1.03894,7.79138-1.55844,15.06396-1.55844c21.55731,0,34.80383,11.68741,34.80383,34.54343
				c0,12.72705-4.15576,23.37549-10.90887,31.42731c-13.24585-2.33768-28.31049-3.11682-44.6731-2.33768
				C623.16968,300.71103,623.16968,285.9068,623.68915,267.98502 M653.81775,428.49734
				c43.11469,0,68.82776-25.19363,68.82776-54.54303c0-23.11575-14.02496-37.91995-37.14142-45.97177
				c12.98676-7.79208,24.1554-22.07681,24.1554-39.21936c0-27.79031-23.11646-44.93283-63.63379-44.93283
				c-17.40155,0-21.55737,1.5584-37.92072,1.5584c-16.88208,0-27.27155-1.29866-34.02393-1.29866
				c-4.15576,0-6.23364,2.33762-6.23364,5.71417c0,2.85712,1.55847,5.19472,7.01288,6.23364
				c14.02496,2.07791,17.40155,4.93497,17.40155,11.94711c0.2597,22.07684,0.51947,38.69989,0.51947,67.78961
				c0,29.08963,0,46.23151-0.51947,68.30829c-0.2597,7.53235-2.85712,9.6102-16.88208,10.90891
				c-5.45447,0.77921-7.01288,3.37582-7.01288,6.23291c0,3.37656,2.07788,5.7142,6.23364,5.7142
				c10.12897,0,19.7392-0.51947,33.50446-0.51947C621.0918,426.41946,633.03888,428.49734,653.81775,428.49734 M442.66214,430.05576
				c22.07678,0,42.59592-6.23364,62.07538-18.95999c5.45441-3.37656,7.01285-7.01285,7.01285-10.64914
				c0-7.01291,0.51874-13.50555,0.25897-19.21973c-0.25897-4.4155-2.33688-7.01285-5.97318-7.01285
				c-2.85709,0-4.935,1.81812-5.97391,5.71417c-6.75314,22.59628-27.01178,34.80386-52.72491,34.80386
				c-37.92068,0-66.49014-31.42731-66.49014-78.95746c0-48.04968,27.01178-79.47699,67.00961-79.47699
				c25.97287,0,41.55624,9.60953,50.12753,29.8689c1.81818,4.15503,3.37656,6.23294,6.75317,6.23294
				c3.63629,0,5.19467-2.59735,5.45441-6.75241c0.25974-5.97394,0.25974-15.3244,0.25974-21.0386
				c0-3.89526-1.29868-7.01215-7.01285-10.12895c-13.76599-7.53233-32.98572-12.9868-53.50409-12.9868
				c-60.77673,0-102.33298,41.81677-102.33298,97.13898C347.60175,392.39481,386.56064,430.05576,442.66214,430.05576
				 M245.27245,430.05576c44.93285,0,74.54198-27.79102,74.54198-76.87958v-17.40155c0-29.3494,0-46.49197,0.25974-70.1272
				c0.25974-5.4537,2.85709-7.79135,17.14182-9.09006c4.935-0.77917,6.49341-3.37656,6.49341-6.23364
				c0-3.37656-2.07788-5.71416-5.97394-5.71416c-8.31079,0-16.36261,0.77917-26.75204,0.77917
				c-10.64844,0-18.95996-0.77917-27.53052-0.77917c-3.89603,0-5.97394,2.3376-5.97394,5.71416
				c0,2.59735,1.55841,5.19473,6.75314,5.97391c15.06393,1.55844,17.66129,3.89609,17.66129,9.34979
				c0.5195,23.63522,0.5195,40.7778,0.5195,70.1272v15.32367c0,38.44016-18.95999,57.91962-50.64702,57.91962
				c-32.46625,0-49.34834-20.25867-49.34834-56.1015v-17.14178c0-29.3494,0-46.49197,0.51947-70.1272
				c0-5.4537,2.59737-7.79135,16.8821-9.09006c5.19472-0.77917,6.75313-3.37656,6.75313-6.23364
				c0-3.37656-2.07788-5.71416-6.23366-5.71416c-9.86995,0-19.73918,0.77917-33.24544,0.77917
				c-13.50554,0-23.11575-0.77917-33.24472-0.77917c-3.89604,0-5.97392,2.3376-5.97392,5.71416
				c0,2.85709,1.55843,5.45447,6.75313,6.23364c14.28474,1.29871,16.8821,3.63635,16.8821,9.09006
				c0.51947,23.63522,0.51947,40.7778,0.51947,70.1272v20.51834C172.02916,404.86215,200.0799,430.05576,245.27245,430.05576"/>
		</g>
	</g>
</g>
<g id="Endorser_Lines">
</g>
<g id="Double_Unit_Name_Lines">
	<g id="_x35_:Vertical_Unit_Lines_Outline">
		<path style="fill:#002676;" d="M186.06787,684.34509c-10.42822,0-19.33057,0.7627-28.23242,0.7627
			c-3.56104,0-5.5957-2.03418-5.5957-4.83203c0-2.54395,1.52588-4.83301,5.8501-5.3418
			c15.00635-1.27148,17.8042-3.30664,17.8042-9.15625c0.25439-23.40039,0.25439-44.00195,0.25439-69.94629
			c0-25.94336,0-45.78223-0.25439-69.18262c0-5.5957-3.56104-8.13867-18.31299-10.42773
			c-4.32422-0.76367-5.8501-2.79785-5.8501-5.3418c0-2.79785,1.78027-4.83301,5.34131-4.83301
			c5.08691,0,15.00635,1.27246,30.01318,1.27246c15.00635,0,26.96094-1.01758,42.47607-1.01758
			c54.93945,0,97.66992,32.30176,97.92432,88.51367c0.25439,56.97363-44.51123,90.80176-98.17871,90.80176
			C214.30078,685.61658,200.56592,684.34509,186.06787,684.34509z M231.3418,673.15369
			c39.42432-1.52637,71.98096-26.70605,71.98096-75.28711c0-47.05469-27.97852-78.84766-74.77832-78.84766
			c-7.63086,0-15.26123,0-23.40039,0.50781c-4.57812,0.25488-6.86719,2.79785-6.86719,6.86816
			c-0.50879,22.89062-0.50879,44.00195-0.50879,69.43652c0,25.18066,0,43.74805,0.50879,62.57031
			c0.25439,10.93652,4.32373,13.48047,15.51514,14.24316C218.11572,673.15369,225.23779,673.40857,231.3418,673.15369z"/>
		<path style="fill:#002676;" d="M340.70898,625.84509c0-38.66113,24.92627-64.35059,53.15869-64.35059
			c25.68945,0,40.44141,17.80469,44.76562,35.60938c1.01709,4.57812-1.52637,7.37598-4.83301,8.13867
			c-23.6543,5.5957-48.32617,10.68262-72.23486,14.75195v1.52637c0,27.46973,15.51514,49.59863,41.20459,49.59863
			c11.19141,0,20.85645-4.5791,30.01318-11.7002c1.52588-1.27246,2.54346-1.78027,3.81494-1.78027
			c3.30664,0,5.0874,4.32324,2.28955,7.88477c-9.41113,12.20801-25.18066,22.12793-43.49365,22.12793
			C364.10889,687.65173,340.70898,662.21716,340.70898,625.84509z M362.58301,608.29529
			c18.31299-3.56152,36.37158-7.12207,50.86963-10.9375c2.03467-0.7627,3.05225-1.78027,2.79785-3.81543
			c-1.27197-10.93652-11.19141-20.85645-23.3999-20.85645C378.09814,572.68591,365.88916,585.1488,362.58301,608.29529z"/>
		<path style="fill:#002676;" d="M449.05908,741.82849c0-2.54395,1.52637-4.5791,5.5957-5.08789
			c11.7002-1.78027,12.71777-2.79785,12.71777-8.90137c0.7627-30.26758,0.5083-56.71973,0.5083-98.94238
			c0-18.3125,0-30.77637-0.5083-43.49316c-0.25439-6.10449-1.27197-7.12207-14.24365-9.41113
			c-4.32422-0.7627-5.8501-2.79785-5.8501-5.08691c0-2.54395,1.52588-4.06934,5.5957-4.57812
			c8.64795-0.50879,19.83936-2.79785,31.28467-5.85059c2.54346-0.7627,4.83301,0.50879,4.83301,3.56152
			c-0.25439,7.12109-0.25439,13.48047-0.50879,19.07617c11.4458-15.26074,24.16309-21.87402,37.89795-21.87402
			c28.48682,0,48.58057,25.68945,48.58057,58.75391c0,42.22266-26.45215,67.40332-56.97412,67.40332
			c-12.20898,0-22.38281-4.32422-29.75879-10.9375c0,18.31348,0,34.08301,0.50879,51.37891
			c0,6.10352,1.27148,7.37598,16.53271,8.90137c4.83252,0.25488,6.3584,2.54395,6.3584,5.08789
			c0,2.28906-1.52588,4.32324-5.08691,4.32324c-7.37598,0-19.58496-0.7627-28.48682-0.7627
			c-8.64795,0-16.78711,0.7627-23.90918,0.7627C450.83984,746.15173,449.05908,744.11755,449.05908,741.82849z M488.229,661.19958
			c6.35889,8.90234,16.53271,14.24316,27.72412,14.24316c21.61963,0,37.89795-18.56738,37.89795-50.61523
			c0-29.25-15.51562-47.56348-34.5918-47.56348c-11.69971,0-22.63672,6.10449-30.77588,18.31348
			c-0.25439,12.46289-0.25439,22.63672-0.25439,33.31934V661.19958z"/>
		<path style="fill:#002676;" d="M589.9668,660.6908c0-23.90918,27.72363-35.86328,67.40234-45.52832
			c0-5.5957,0.25439-11.44629,0.50879-17.5498c0.5083-16.02441-7.63086-23.90918-19.33057-23.90918
			c-15.77002,0-27.97852,8.13867-27.97852,16.78711c0,2.54297,0.50879,5.08691,0.50879,7.37598
			c0,5.08691-4.57861,10.68262-11.7002,10.68262c-5.8501,0-10.93701-3.30664-10.93701-11.7002
			c0-13.73438,21.61963-35.35449,53.41309-35.35449c18.82227,0,37.38965,8.13965,36.37207,34.33691
			c-0.76318,19.07617-0.76318,34.5918-0.50879,48.58105c0.25439,17.04102,5.34131,24.92578,14.75244,30.26758
			c3.05225,1.78027,3.30664,4.57812,0,7.12207c-2.79785,1.78027-6.35889,4.32324-9.15674,5.84961
			c-4.32373,2.28906-5.5957,2.03516-8.39355,0.25391c-6.104-3.81445-11.9541-11.19043-15.00635-23.6543
			c-7.63037,9.66602-23.40039,23.6543-39.93262,23.6543C600.64941,687.90564,589.9668,676.71521,589.9668,660.6908z
			 M628.37305,672.13611c8.64795,0,20.60254-6.10449,30.01318-15.76953c-0.5083-3.30664-0.7627-6.86719-0.7627-10.68262
			c-0.25439-6.61328-0.25439-13.73438-0.25439-20.60156c-28.4873,6.86719-46.5459,16.53223-46.5459,31.53906
			C610.82324,667.04919,617.94482,672.13611,628.37305,672.13611z"/>
		<path style="fill:#002676;" d="M702.896,680.78455c0-2.54395,1.52588-4.32422,5.5957-5.08691
			c11.7002-1.78027,12.46289-2.79785,12.71729-8.90234c0.50879-13.73535,0.50879-25.68945,0.50879-42.47656
			c0-13.73438-0.25439-26.19824-0.50879-38.91504c-0.25439-6.10449-1.27148-7.12207-14.24365-9.41113
			c-4.57812-0.7627-5.84961-2.79785-5.84961-5.08691c0-2.54395,1.52588-4.06934,5.34131-4.57812
			c8.90186-0.50879,20.09326-2.79785,31.28467-5.85059c2.79785-0.7627,4.83252,0.50879,4.83252,3.56152
			c-0.25439,10.42773-0.25439,19.33008-0.25439,26.96094c13.73486-21.11133,23.90918-29.50488,35.1001-29.50488
			c6.10449,0,11.4458,1.52637,17.0415,5.08691c2.28906,1.78027,2.79785,3.56152,1.78076,6.10449
			c-2.03516,4.83301-4.57861,9.91992-7.37646,14.49805c-0.50879,1.27148-1.27148,1.78027-2.54346,1.78027
			c-3.56055,0-8.13916-8.39355-16.78711-8.39355c-7.12158,0-13.48047,3.56152-27.46973,21.87402v21.87402
			c0,16.78711,0,28.74121,0.25439,42.47656c0.25439,6.10449,1.27197,7.37598,16.53271,8.90234
			c5.08691,0.50879,6.61328,2.54297,6.61328,5.08691c0,2.28906-1.78027,4.32324-5.08691,4.32324
			c-7.37646,0-19.83936-0.7627-28.4873-0.7627s-16.78711,0.7627-23.90869,0.7627
			C704.42188,685.10779,702.896,683.07361,702.896,680.78455z"/>
		<path style="fill:#002676;" d="M818.87549,656.87537c0.25439-27.46973,0.25439-53.15918,0-80.12012h-12.97168
			c-3.05225,0-5.08691-1.52539-5.08691-4.32324c0-1.78027,0.76318-3.05273,4.57812-5.3418
			c7.88477-4.57812,17.2959-12.7168,26.19824-25.68945c3.05225-3.81445,8.13916-3.05176,8.13916,2.03516
			c0,6.61328-0.25439,13.48047-0.25439,20.60254c11.19141,0.25391,21.87402,0.25391,31.79346-0.25488
			c4.57812-0.25391,6.86768,2.79785,6.86768,6.61328c0,3.56055-2.28955,6.61328-6.86768,6.3584
			c-9.91943-0.25391-20.60205-0.25391-31.79346,0c-0.25439,27.72461,0,55.70312,0,76.30469
			c0,11.7002,4.83252,18.82227,15.76953,18.82227c5.08691,0,9.41113-1.27148,14.24365-3.56055
			c2.28906-1.01758,3.56055-1.52637,4.83252-1.52637c3.30664,0,5.34131,4.32422,2.03467,7.37598
			c-7.37598,7.63086-17.5498,12.97168-29.25,12.97168C828.03223,687.14294,818.36719,676.71521,818.87549,656.87537z"/>
		<path style="fill:#002676;" d="M882.46045,680.78455c0-2.54395,1.52588-4.57812,5.5957-5.08691
			c11.7002-1.78027,12.46289-2.79785,12.71729-8.90234c0.50879-13.73535,0.50879-25.68945,0.50879-42.47656
			c0-13.73438-0.25439-26.19824-0.50879-38.91504c-0.25439-6.10449-1.27148-7.12207-14.24365-9.41113
			c-4.57812-0.7627-5.84961-2.79785-5.84961-5.08691c0-2.54395,1.52588-4.06934,5.34131-4.57812
			c8.90186-0.50879,20.09326-2.79785,31.28467-5.85059c2.79785-0.7627,4.83252,0.50879,4.83252,3.56152
			c0,6.61328-0.25439,12.7168-0.25439,18.3125c11.7002-12.46289,25.18066-21.11035,39.16992-21.11035
			c15.26074,0,26.70654,7.88477,31.03076,22.8916c12.2085-13.22656,26.19775-22.8916,40.94971-22.8916
			c19.58496,0,33.57422,13.22559,32.81104,37.89746c-0.25439,10.17383-0.25439,17.2959-0.25439,25.18066
			c0,16.78711,0,28.74121,0.25439,42.47656c0.25439,6.10449,1.01758,7.12207,12.71777,8.90234
			c4.32373,0.50879,5.84961,2.54297,5.84961,5.08691c0,2.28906-1.78027,4.32324-5.08691,4.32324
			c-7.37598,0-15.26074-0.7627-23.90869-0.7627c-8.39355,0-16.27832,0.7627-23.6543,0.7627
			c-3.30664,0-4.83252-2.03418-4.83252-4.32324c0-2.54395,1.27148-4.57812,5.34131-5.08691
			c11.4458-1.78027,12.2085-2.79785,12.46289-8.90234c0.50879-13.73535,0.50879-25.68945,0.50879-42.47656
			c0-7.62988,0-14.49805-0.25439-24.16309c-0.50879-13.22559-5.8501-23.14551-21.36523-23.14551
			c-10.17383,0-21.36523,6.86719-30.01318,15.76953c0.25439,2.03516,0.25439,4.06934,0.25439,6.3584
			c-0.25439,10.17383-0.25439,17.2959-0.25439,25.18066c0,16.78711,0,28.74121,0.25439,42.47656
			c0.25439,6.10449,1.01758,7.12207,12.71729,8.90234c3.81543,0.50879,5.34131,2.54297,5.34131,5.08691
			c0,2.28906-1.78027,4.32324-5.08691,4.32324c-7.12158,0-15.00635-0.7627-23.3999-0.7627s-16.27832,0.7627-23.65479,0.7627
			c-3.30615,0-5.08691-2.03418-5.08691-4.32324c0-2.54395,1.52637-4.57812,5.5957-5.08691
			c11.4458-1.78027,12.20898-2.79785,12.46338-8.90234c0.5083-13.73535,0.5083-25.68945,0.5083-42.47656
			c0-7.62988,0-14.49805-0.25391-24.16309c-0.50879-13.22559-5.8501-23.14551-21.36572-23.14551
			c-10.17383,0-21.36523,6.86719-30.01318,15.76953v31.53906c0,16.78711,0,28.74121,0.25439,42.47656
			c0.25439,6.10449,1.01758,7.12207,12.71777,8.90234c3.81494,0.50879,5.34131,2.54297,5.34131,5.08691
			c0,2.28906-1.78076,4.32324-5.08691,4.32324c-7.12207,0-15.00684-0.7627-23.40039-0.7627
			c-8.64795,0-16.78711,0.7627-23.90869,0.7627C883.98633,685.10779,882.46045,683.07361,882.46045,680.78455z"/>
		<path style="fill:#002676;" d="M1091.27637,625.84509c0-38.66113,24.92627-64.35059,53.15869-64.35059
			c25.68945,0,40.44141,17.80469,44.76562,35.60938c1.01709,4.57812-1.52637,7.37598-4.83301,8.13867
			c-23.6543,5.5957-48.32617,10.68262-72.23486,14.75195v1.52637c0,27.46973,15.51514,49.59863,41.20459,49.59863
			c11.19141,0,20.85645-4.5791,30.01318-11.7002c1.52588-1.27246,2.54346-1.78027,3.81494-1.78027
			c3.30664,0,5.0874,4.32324,2.28955,7.88477c-9.41113,12.20801-25.18066,22.12793-43.49365,22.12793
			C1114.67627,687.65173,1091.27637,662.21716,1091.27637,625.84509z M1113.15039,608.29529
			c18.31299-3.56152,36.37158-7.12207,50.86963-10.9375c2.03467-0.7627,3.05225-1.78027,2.79785-3.81543
			c-1.27197-10.93652-11.19141-20.85645-23.3999-20.85645C1128.66553,572.68591,1116.45654,585.1488,1113.15039,608.29529z"/>
		<path style="fill:#002676;" d="M1200.64453,680.78455c0-2.54395,1.52588-4.57812,5.5957-5.08691
			c11.7002-1.78027,12.46289-2.79785,12.71729-8.90234c0.50879-13.73535,0.50879-25.68945,0.50879-42.47656
			c0-13.73438-0.25439-26.19824-0.50879-38.91504c-0.25439-6.10449-1.27148-7.12207-14.24365-9.41113
			c-4.57812-0.7627-5.84961-2.79785-5.84961-5.08691c0-2.54395,1.52588-4.06934,5.34131-4.57812
			c8.90186-0.50879,20.09326-2.79785,31.28467-5.85059c2.79785-0.7627,4.83252,0.50879,4.83252,3.56152
			c0,6.61328-0.25439,12.7168-0.25439,18.3125c11.95459-12.7168,26.19824-21.11035,40.6958-21.11035
			c19.58496,0,33.82861,13.22559,33.31982,37.89746c-0.25439,10.17383-0.25439,17.2959-0.25439,25.18066
			c0,16.78711,0,28.74121,0.25439,42.47656c0.25439,6.10449,1.01758,7.12207,12.71729,8.90234
			c4.32422,0.50879,5.8501,2.54297,5.8501,5.08691c0,2.28906-1.78027,4.32324-5.08691,4.32324
			c-7.37598,0-15.51514-0.7627-23.90869-0.7627c-8.64795,0-16.53271,0.7627-23.6543,0.7627
			c-3.30664,0-5.08691-2.03418-5.08691-4.32324c0-2.54395,1.52588-4.57812,5.34131-5.08691
			c11.69971-1.78027,12.46289-2.79785,12.71729-8.90234c0.25439-13.73535,0.25439-25.68945,0.25439-42.47656
			c0-7.62988,0-14.49805-0.25439-24.16309c-0.25439-13.22559-5.8501-23.14551-22.12842-23.14551
			c-10.42822,0-22.12842,6.86719-31.03027,15.76953v31.53906c0,16.78711,0,28.74121,0.25391,42.47656
			c0.25439,6.10449,1.01758,7.12207,12.71777,8.90234c3.81494,0.50879,5.34131,2.54297,5.34131,5.08691
			c0,2.28906-1.52637,4.32324-5.08691,4.32324c-7.12207,0-15.00684-0.7627-23.40039-0.7627
			c-8.64795,0-16.78711,0.7627-23.90869,0.7627C1202.17041,685.10779,1200.64453,683.07361,1200.64453,680.78455z"/>
		<path style="fill:#002676;" d="M1351.47217,656.87537c0.25439-27.46973,0.25439-53.15918,0-80.12012h-12.97168
			c-3.05225,0-5.08691-1.52539-5.08691-4.32324c0-1.78027,0.76318-3.05273,4.57812-5.3418
			c7.88477-4.57812,17.2959-12.7168,26.19824-25.68945c3.05225-3.81445,8.13916-3.05176,8.13916,2.03516
			c0,6.61328-0.25439,13.48047-0.25439,20.60254c11.19141,0.25391,21.87402,0.25391,31.79346-0.25488
			c4.57812-0.25391,6.86768,2.79785,6.86768,6.61328c0,3.56055-2.28955,6.61328-6.86768,6.3584
			c-9.91943-0.25391-20.60205-0.25391-31.79346,0c-0.25439,27.72461,0,55.70312,0,76.30469
			c0,11.7002,4.83252,18.82227,15.76953,18.82227c5.08691,0,9.41113-1.27148,14.24365-3.56055
			c2.28906-1.01758,3.56055-1.52637,4.83252-1.52637c3.30664,0,5.34131,4.32422,2.03467,7.37598
			c-7.37598,7.63086-17.5498,12.97168-29.25,12.97168C1360.62891,687.14294,1350.96387,676.71521,1351.47217,656.87537z"/>
		<path style="fill:#002676;" d="M1459.31104,625.0824c0-37.38965,24.92627-63.8418,56.97412-63.8418
			c30.52197,0,55.95654,25.43457,55.95654,62.56934c0,37.64355-25.18018,63.8418-56.97412,63.8418
			C1484.4917,687.65173,1459.31104,662.47107,1459.31104,625.0824z M1550.87646,629.15173
			c0-36.37207-17.5498-55.95703-37.13477-55.95703c-19.83936,0-33.06543,18.56738-33.06543,46.29199
			c0,36.37109,17.55029,55.95605,36.88037,55.95605C1537.65039,675.44275,1550.87646,656.87537,1550.87646,629.15173z"/>
		<path style="fill:#002676;" d="M1580.88672,680.78455c0-2.54395,1.52588-4.32422,5.5957-5.08691
			c11.7002-1.78027,12.46289-2.79785,12.71729-8.90234c0.50879-24.92676,0.50879-48.32617,0.50879-70.96387v-19.33008
			c-5.08691,0-10.17383,0-15.00635,0.25391c-4.32422,0.25488-6.86768-2.79785-6.86768-6.3584
			c0-3.81543,2.54346-6.61328,6.86768-6.61328c4.83252,0.25488,9.66504,0.50879,14.75195,0.50879
			c0-5.34082-0.25439-10.17383-0.25439-14.24316c-0.50879-36.11719,15.76953-58.75488,48.07178-58.75488
			c18.05908,0,31.03076,9.15625,31.03076,19.07617c0,5.5957-3.56104,9.91992-9.66504,9.91992
			c-11.7002,0-9.91992-16.02441-25.94385-16.02441c-16.78711,0-23.3999,16.78711-23.3999,38.66113
			c0,5.85059,0.25439,13.48047,0.25439,21.36523c7.63037,0,15.00635,0,21.87402-0.50879
			c4.57812-0.25391,6.86719,2.79785,6.86719,6.61328c0,3.56055-2.28906,6.61328-6.86719,6.3584
			c-6.86768-0.25391-13.98926-0.25391-21.61963-0.25391c0.25439,6.86719,0.25439,13.48047,0.25439,19.33008
			c0,22.6377,0,46.03711,0.25391,70.96387c0.25439,6.10449,1.27197,7.37598,16.53271,8.90234
			c5.08691,0.50879,6.61328,2.54297,6.61328,5.08691c0,2.28906-1.78027,4.32324-5.08691,4.32324
			c-7.37646,0-19.83936-0.7627-28.4873-0.7627s-16.78711,0.7627-23.90869,0.7627
			C1582.4126,685.10779,1580.88672,683.07361,1580.88672,680.78455z"/>
		<path style="fill:#002676;" d="M1709.83398,674.42517c-3.81543-3.05176-5.3418-5.84961-5.5957-9.66504
			c-0.76367-6.86719-1.27246-16.53223-1.01758-24.41699c0.25391-4.07031,2.03418-6.10449,4.83203-6.10449
			c2.54395,0,4.5791,1.78027,5.3418,4.83203c5.84961,27.46973,21.61914,36.37207,42.98535,36.37207
			c22.12793,0,38.15234-13.73438,38.15234-33.06543c0-42.22168-86.22461-36.37109-86.22461-90.03906
			c0-27.72363,22.63672-48.32617,56.71973-48.32617c11.7002,0,26.45215,2.54297,37.89746,9.66504
			c4.07031,2.28906,5.3418,4.57812,5.5957,7.63086c0.25488,6.10449,0.50879,13.48047,0.25488,20.60156
			c0,3.30664-1.52637,5.5957-4.57812,5.5957c-2.79785,0-4.32422-1.78027-5.5957-6.10449
			c-5.85059-17.29492-18.05859-25.43457-35.35449-25.43457c-19.07617,0-33.57422,10.9375-33.57422,28.74121
			c0,42.47656,86.9873,36.62695,86.9873,90.29395c0,28.74121-22.63672,52.65039-61.80664,52.65039
			C1736.54004,687.65173,1721.5332,682.56482,1709.83398,674.42517z"/>
		<path style="fill:#002676;" d="M1840.81836,656.87537c0.25391-27.46973,0.25391-53.15918,0-80.12012h-12.97168
			c-3.05273,0-5.08691-1.52539-5.08691-4.32324c0-1.78027,0.7627-3.05273,4.57812-5.3418
			c7.88477-4.57812,17.29492-12.7168,26.19727-25.68945c3.05273-3.81445,8.13965-3.05176,8.13965,2.03516
			c0,6.61328-0.25488,13.48047-0.25488,20.60254c11.19141,0.25391,21.87402,0.25391,31.79395-0.25488
			c4.57812-0.25391,6.86719,2.79785,6.86719,6.61328c0,3.56055-2.28906,6.61328-6.86719,6.3584
			c-9.91992-0.25391-20.60254-0.25391-31.79395,0c-0.25391,27.72461,0,55.70312,0,76.30469
			c0,11.7002,4.83301,18.82227,15.76953,18.82227c5.08789,0,9.41113-1.27148,14.24414-3.56055
			c2.28906-1.01758,3.56055-1.52637,4.83203-1.52637c3.30664,0,5.3418,4.32422,2.03516,7.37598
			c-7.37598,7.63086-17.5498,12.97168-29.25,12.97168C1849.97461,687.14294,1840.30957,676.71521,1840.81836,656.87537z"/>
		<path style="fill:#002676;" d="M1909.49219,660.6908c0-23.90918,27.72461-35.86328,67.40234-45.52832
			c0-5.5957,0.25488-11.44629,0.50879-17.5498c0.50879-16.02441-7.62988-23.90918-19.33008-23.90918
			c-15.76953,0-27.97852,8.13867-27.97852,16.78711c0,2.54297,0.50879,5.08691,0.50879,7.37598
			c0,5.08691-4.57812,10.68262-11.7002,10.68262c-5.84961,0-10.93652-3.30664-10.93652-11.7002
			c0-13.73438,21.61914-35.35449,53.41309-35.35449c18.82129,0,37.38867,8.13965,36.37207,34.33691
			c-0.76367,19.07617-0.76367,34.5918-0.50879,48.58105c0.25391,17.04102,5.34082,24.92578,14.75195,30.26758
			c3.05176,1.78027,3.30664,4.57812,0,7.12207c-2.79785,1.78027-6.3584,4.32324-9.15625,5.84961
			c-4.32422,2.28906-5.5957,2.03516-8.39355,0.25391c-6.10449-3.81445-11.95508-11.19043-15.00684-23.6543
			c-7.63086,9.66602-23.40039,23.6543-39.93262,23.6543C1920.1748,687.90564,1909.49219,676.71521,1909.49219,660.6908z
			 M1947.89941,672.13611c8.64746,0,20.60156-6.10449,30.0127-15.76953c-0.50879-3.30664-0.7627-6.86719-0.7627-10.68262
			c-0.25488-6.61328-0.25488-13.73438-0.25488-20.60156c-28.48633,6.86719-46.5459,16.53223-46.5459,31.53906
			C1930.34863,667.04919,1937.4707,672.13611,1947.89941,672.13611z"/>
		<path style="fill:#002676;" d="M2034.8877,656.87537c0.25391-27.46973,0.25391-53.15918,0-80.12012h-12.97168
			c-3.05273,0-5.08691-1.52539-5.08691-4.32324c0-1.78027,0.7627-3.05273,4.57812-5.3418
			c7.88477-4.57812,17.2959-12.7168,26.19727-25.68945c3.05273-3.81445,8.13965-3.05176,8.13965,2.03516
			c0,6.61328-0.25488,13.48047-0.25488,20.60254c11.19141,0.25391,21.87402,0.25391,31.79395-0.25488
			c4.57812-0.25391,6.86719,2.79785,6.86719,6.61328c0,3.56055-2.28906,6.61328-6.86719,6.3584
			c-9.91992-0.25391-20.60254-0.25391-31.79395,0c-0.25391,27.72461,0,55.70312,0,76.30469
			c0,11.7002,4.83301,18.82227,15.77051,18.82227c5.08691,0,9.41016-1.27148,14.24316-3.56055
			c2.28906-1.01758,3.56055-1.52637,4.83203-1.52637c3.30664,0,5.3418,4.32422,2.03516,7.37598
			c-7.37598,7.63086-17.5498,12.97168-29.25,12.97168C2044.04395,687.14294,2034.37891,676.71521,2034.8877,656.87537z"/>
		<path style="fill:#002676;" d="M2098.47266,680.78455c0-2.54395,1.52637-4.32422,5.5957-5.08691
			c11.7002-1.78027,12.46289-2.79785,12.71777-8.90234c0.50879-13.73535,0.50879-25.68945,0.50879-42.47656
			c0-13.73438-0.25488-26.19824-0.50879-38.91504c-0.25488-6.10449-1.27246-7.12207-14.24414-9.41113
			c-4.57812-0.7627-5.84961-2.79785-5.84961-5.08691c0-2.54395,1.52637-4.06934,5.34082-4.57812
			c8.90234-0.50879,20.34863-2.79785,31.53906-5.85059c2.54395-0.7627,4.83301,0.50879,4.83301,3.56152
			c-0.7627,33.82812-0.7627,46.5459-0.7627,60.28027c0,16.78711,0,28.74121,0.25391,42.47656
			c0.25488,6.10449,1.01758,7.12207,12.71777,8.90234c4.32422,0.7627,5.84961,2.54297,5.84961,5.08691
			c0,2.28906-1.78027,4.32324-5.08691,4.32324c-7.37598,0-15.26074-0.7627-23.9082-0.7627
			c-8.64844,0-16.78711,0.7627-23.90918,0.7627C2099.99902,685.10779,2098.47266,683.07361,2098.47266,680.78455z
			 M2111.69922,523.85095c0-7.88477,6.10352-15.26074,15.00586-15.26074c8.39355,0,15.00684,6.10449,15.00684,15.26074
			c0,7.63086-6.10449,15.00684-15.00684,15.00684C2118.31152,538.85779,2111.69922,532.7533,2111.69922,523.85095z"/>
		<path style="fill:#002676;" d="M2171.21387,677.98669c-3.56055-2.79785-4.57812-5.08691-5.08691-8.90234
			c-0.50879-4.83301-0.7627-10.17383-0.7627-15.00684c0-4.06934,1.78027-6.10449,4.57812-6.10449
			c2.28906,0,3.81543,1.01758,4.83203,4.57812c5.08789,16.78711,16.5332,23.90918,33.06543,23.90918
			c15.26172,0,24.41797-9.15625,24.41797-20.09375c0-28.4873-63.33301-21.11035-63.33301-59.77148
			c0-20.60254,17.2959-35.35449,41.2041-35.35449c12.71777,0,24.41797,3.30664,31.28516,8.13867
			c3.81543,2.28906,4.57812,5.08691,5.08691,8.90234s0.50879,8.39355,0.50879,12.46289c0,4.32422-1.52637,6.35938-4.06934,6.35938
			c-2.54395,0-3.81543-1.52637-5.08691-4.57812c-4.83301-13.73535-15.51562-20.09375-28.74121-20.09375
			c-13.48047,0-21.11133,8.39355-21.11133,18.05859c0,26.45215,63.8418,20.85645,63.8418,60.28027
			c0,22.12891-19.33105,37.13477-43.74805,37.13477C2193.34277,687.90564,2179.09863,684.09119,2171.21387,677.98669z"/>
		<path style="fill:#002676;" d="M2275.49902,656.87537c0.25391-27.46973,0.25391-53.15918,0-80.12012h-12.97168
			c-3.05273,0-5.08691-1.52539-5.08691-4.32324c0-1.78027,0.7627-3.05273,4.57812-5.3418
			c7.88477-4.57812,17.2959-12.7168,26.19727-25.68945c3.05273-3.81445,8.13965-3.05176,8.13965,2.03516
			c0,6.61328-0.25488,13.48047-0.25488,20.60254c11.19141,0.25391,21.87402,0.25391,31.79395-0.25488
			c4.57812-0.25391,6.86719,2.79785,6.86719,6.61328c0,3.56055-2.28906,6.61328-6.86719,6.3584
			c-9.91992-0.25391-20.60254-0.25391-31.79395,0c-0.25391,27.72461,0,55.70312,0,76.30469
			c0,11.7002,4.83301,18.82227,15.77051,18.82227c5.08691,0,9.41016-1.27148,14.24316-3.56055
			c2.28906-1.01758,3.56055-1.52637,4.83203-1.52637c3.30664,0,5.3418,4.32422,2.03516,7.37598
			c-7.37598,7.63086-17.5498,12.97168-29.25,12.97168C2284.65527,687.14294,2274.99023,676.71521,2275.49902,656.87537z"/>
		<path style="fill:#002676;" d="M2339.08398,680.78455c0-2.54395,1.52637-4.32422,5.5957-5.08691
			c11.7002-1.78027,12.46289-2.79785,12.71777-8.90234c0.50879-13.73535,0.50879-25.68945,0.50879-42.47656
			c0-13.73438-0.25488-26.19824-0.50879-38.91504c-0.25488-6.10449-1.27246-7.12207-14.24414-9.41113
			c-4.57812-0.7627-5.84961-2.79785-5.84961-5.08691c0-2.54395,1.52637-4.06934,5.34082-4.57812
			c8.90234-0.50879,20.34863-2.79785,31.53906-5.85059c2.54395-0.7627,4.83301,0.50879,4.83301,3.56152
			c-0.7627,33.82812-0.7627,46.5459-0.7627,60.28027c0,16.78711,0,28.74121,0.25391,42.47656
			c0.25488,6.10449,1.01758,7.12207,12.71777,8.90234c4.32422,0.7627,5.84961,2.54297,5.84961,5.08691
			c0,2.28906-1.78027,4.32324-5.08691,4.32324c-7.37598,0-15.26074-0.7627-23.9082-0.7627
			c-8.64844,0-16.78711,0.7627-23.90918,0.7627C2340.61035,685.10779,2339.08398,683.07361,2339.08398,680.78455z
			 M2352.31055,523.85095c0-7.88477,6.10352-15.26074,15.00586-15.26074c8.39355,0,15.00684,6.10449,15.00684,15.26074
			c0,7.63086-6.10449,15.00684-15.00684,15.00684C2358.92285,538.85779,2352.31055,532.7533,2352.31055,523.85095z"/>
		<path style="fill:#002676;" d="M2404.70312,627.37146c0-37.89844,25.94434-65.87695,57.7373-65.87695
			c25.94434,0,40.1875,15.00684,40.1875,26.70703c0,7.12109-4.83301,10.68262-10.68262,10.68262
			c-4.83301,0-10.42871-3.56152-12.97168-12.71777c-2.79785-9.66504-8.13965-13.22559-18.05859-13.22559
			c-18.31348,0-35.10059,16.27832-35.10059,48.58008c0,27.46973,14.75195,49.59863,38.91504,49.59863
			c11.7002,0,21.36523-4.5791,31.79395-13.22656c1.52637-1.27148,2.54395-1.78027,3.81543-1.78027
			c3.30664,0,5.08691,4.06934,2.28906,7.88477c-11.44629,14.75195-26.70703,23.6543-45.52832,23.6543
			C2427.34082,687.65173,2404.70312,663.23376,2404.70312,627.37146z"/>
		<path style="fill:#002676;" d="M2518.90332,677.98669c-3.56055-2.79785-4.57812-5.08691-5.08691-8.90234
			c-0.50879-4.83301-0.7627-10.17383-0.7627-15.00684c0-4.06934,1.78027-6.10449,4.57812-6.10449
			c2.28906,0,3.81543,1.01758,4.83203,4.57812c5.08789,16.78711,16.5332,23.90918,33.06543,23.90918
			c15.26172,0,24.41797-9.15625,24.41797-20.09375c0-28.4873-63.33301-21.11035-63.33301-59.77148
			c0-20.60254,17.2959-35.35449,41.2041-35.35449c12.71777,0,24.41797,3.30664,31.28516,8.13867
			c3.81543,2.28906,4.57812,5.08691,5.08691,8.90234s0.50879,8.39355,0.50879,12.46289c0,4.32422-1.52637,6.35938-4.06934,6.35938
			c-2.54395,0-3.81543-1.52637-5.08691-4.57812c-4.83301-13.73535-15.51562-20.09375-28.74121-20.09375
			c-13.48047,0-21.11133,8.39355-21.11133,18.05859c0,26.45215,63.8418,20.85645,63.8418,60.28027
			c0,22.12891-19.33105,37.13477-43.74805,37.13477C2541.03223,687.90564,2526.78809,684.09119,2518.90332,677.98669z"/>
	</g>
</g>
</svg>
